<?xml version="1.0" encoding="UTF-8" standalone="no"?>
<svg width="1180px" height="1631px" viewBox="0 0 1180 1631" version="1.1" xmlns="http://www.w3.org/2000/svg" xmlns:xlink="http://www.w3.org/1999/xlink" xmlns:sketch="http://www.bohemiancoding.com/sketch/ns">
    <!-- Generator: Sketch 3.2.2 (9983) - http://www.bohemiancoding.com/sketch -->
    <title>bg</title>
    <desc>Created with Sketch.</desc>
    <defs></defs>
    <g id="Blank-Project" stroke="none" stroke-width="1" fill="none" fill-rule="evenodd" sketch:type="MSPage">
        <g id="Portada" sketch:type="MSArtboardGroup">
            <g id="bg" sketch:type="MSLayerGroup" transform="translate(-136.000000, -240.000000)">
                <g id="gegant-bg" transform="translate(623.922573, 310.295629) rotate(-272.000000) translate(-623.922573, -310.295629) translate(334.922573, -303.204371)" fill="#8C4C35" opacity="0.140158582" sketch:type="MSShapeGroup">
                    <path d="M277.231272,677.558241 C276.053112,680.936528 275.453521,685.05114 277.167403,688.846171 L278.264264,683.534075 L277.231272,677.558241 L277.231272,677.558241 Z M220.847434,1142.32784 L255.077006,1149.45296 C255.077006,1149.45296 250.295818,1172.23971 258.48901,1179.08935 C266.682202,1185.93899 287.992166,1178.74578 291.861474,1172.96398 C295.730782,1167.18217 290.15821,1152.65647 290.15821,1152.65647 L297.006863,1139.16456 L312.842832,1141.88523 C312.842832,1141.88523 312.382787,1201.39325 316.739527,1211.27308 C321.096267,1221.15291 338.39178,1226.1083 351.700243,1226.1083 C365.008706,1226.10829 382.731409,1206.52506 371.098826,1198.02259 C359.466243,1189.52012 345.182932,1174.13396 345.182932,1174.13396 C345.182932,1174.13396 349.509556,1161.29204 349.50955,1151.58863 C349.509545,1141.88523 353.80879,1135.05725 362.453805,1138.47124 C371.098821,1141.88523 385.447863,1140.15812 385.447863,1140.15812 C385.447863,1140.15812 401.954721,1167.07694 401.954732,1179.70839 C401.954743,1192.33983 423.847972,1217.4294 436.515647,1221.76885 C449.183321,1226.1083 480.367826,1221.53052 480.367836,1208.10361 C480.367847,1194.6767 471.109416,1180.94336 464.531867,1168.82881 C457.954318,1156.71426 450.160923,1147.72894 454.758639,1139.26051 C459.356356,1130.79209 479.820152,1127.61334 487.068617,1139.60099 C494.317082,1151.58864 497.540128,1176.60701 503.816463,1176.60701 C510.092797,1176.60701 526.112237,1178.43317 529.521502,1149.0382 C532.930768,1119.64324 516.85656,1113.00097 510.336512,1104.22303 C503.816463,1095.44508 499.038004,1047.22521 495.108459,1022.75158 C491.178915,998.277953 442.731737,811.737377 442.731737,811.737377 C442.731737,811.737377 422.024215,722.110125 416.665233,650.722784 C411.306251,579.335443 398.616664,556.768452 412.930102,524.99639 C427.24354,493.224327 449.380489,439.733342 449.380489,439.733342 L452.792493,508.81167 L459.736988,538.101401 C459.736988,538.101401 455.864934,572.067952 466.131073,578.577128 C476.397211,585.086304 525.331792,577.345242 546.192673,564.469277 C567.053554,551.593313 580.882291,547.622191 576.799388,536.309289 C572.716484,524.996386 549.237725,523.922357 534.650461,530.115825 C520.063198,536.309292 504.287461,539.135192 504.287461,539.135192 L492.285204,535.83263 L493.386027,455.979966 C493.386027,455.979966 497.77014,421.973173 506.2673,395.401015 C514.76446,368.828856 518.357185,313.140299 518.357185,303.879504 C518.357185,294.618709 511.839874,282.84463 511.839874,282.84463 C511.839874,282.84463 478.834357,287.617405 457.674999,282.42059 C436.515641,277.223775 406.445646,262.453556 395.946757,262.453555 C385.447868,262.453553 380.294253,240.357033 373.349763,232.783116 C366.405273,225.2092 356.475953,219.736913 356.475953,219.736913 C356.475953,219.736913 362.823479,214.468909 374.135674,208.513774 C385.447868,202.558639 395.237521,202.456498 400.26516,196.566362 C405.2928,190.676226 406.308739,171.402512 409.619418,161.866249 C412.930097,152.329985 417.440196,149.268849 426.977919,149.268848 C436.515641,149.268847 437.452173,130.611076 433.82931,123.003112 C430.206446,115.395149 417.63462,114.435642 425.731962,100.835401 C433.829304,87.2351602 443.336916,91.5374682 443.336916,60.6258591 C443.336916,29.71425 392.030892,0.433807658 359.416958,0.433806146 C326.803024,0.433804635 282.597582,23.2143656 278.44622,34.9203518 C274.294857,46.6263381 279.878384,62.5263024 271.411358,72.4061313 C262.944332,82.2859602 256.944573,91.1629494 261.268451,103.763445 C265.592329,116.363942 285.782304,149.705269 285.782302,179.109522 C285.782299,208.513774 290.749696,234.179044 276.009074,246.194551 C261.268452,258.210057 244.066037,275.211905 227.893249,275.211905 C211.72046,275.211905 165.494105,266.919906 146.339239,279.826825 C127.184373,292.733745 113.812929,293.62517 103.612517,306.501125 C93.4121062,319.377081 98.8094239,460.146084 98.8094239,460.146084 C98.8094239,460.146084 96.7446958,527.026831 90.9557908,533.081011 C85.1668857,539.135192 60.3791984,536.934516 60.3791984,536.934516 L41.4981662,536.142149 C41.4981662,536.142149 42.6236339,516.178221 30.5337496,512.494939 C18.4438653,508.811658 6.68806031,507.641678 2.60789529,521.891919 C-1.47226974,536.142161 0.173488435,562.649321 6.93451324,562.649309 C13.695538,562.649297 50.6662117,573.562929 68.3587963,579.344734 C86.0513808,585.126539 113.834839,599.478897 130.087038,585.745576 C146.339237,572.012254 154.053217,539.52209 154.053215,491.986247 C154.053213,444.450403 145.161738,430.683023 151.925505,420.871288 C158.689272,411.059553 167.033071,427.129751 172.027848,439.179304 C177.022625,451.228857 200.931296,502.002252 200.931299,519.072206 C200.931302,536.142161 205.775476,552.490913 200.356242,592.52403 C194.937009,632.557146 196.883997,654.517504 192.560115,662.469009 C188.236233,670.420514 174.771693,718.869461 174.771691,785.644971 C174.771689,852.420482 153.130394,935.377617 166.52921,991.898781 C179.928026,1048.41994 185.511564,1042.95073 180.141626,1075.61424 C174.771689,1108.27774 161.570037,1133.25276 170.855828,1141.14548 C180.141619,1149.0382 191.393579,1159.90544 206.120502,1159.9054 C220.847426,1159.90535 220.847434,1142.32784 220.847434,1142.32784 Z M369.034098,88.3246652 C369.034098,88.3246652 358.07242,100.541359 346.166006,107.081483 C334.259591,113.621607 326.7373,115.24039 334.229469,118.477953 C341.721638,121.715516 349.975073,125.986871 359.504585,122.232411 C369.034098,118.477952 375.433659,111.869734 375.433659,103.435356 C375.433659,95.0009782 369.034098,88.3246652 369.034098,88.3246652 Z M409.41404,336.617271 L439.106141,352.003433 C439.106141,352.003433 454.361578,361.193035 450.037697,370.178356 C445.713816,379.163677 435.053359,380.782458 435.053359,380.782458 C435.053359,380.782458 433.59381,358.546654 423.90821,358.546653 C414.22261,358.546651 406.182769,353.346743 406.182769,347.357561 C406.182769,341.368379 409.41404,336.617271 409.41404,336.617271 Z M160.595171,335.927044 C160.595171,335.927044 173.049259,320.751355 202.163564,325.706745 C231.277869,330.662136 237.912935,342.32479 237.912929,350.452745 C237.912924,358.5807 227.556431,357.478814 223.172306,350.078228 C218.788181,342.677642 203.469765,338.576523 196.22131,344.327375 C188.972855,350.078228 187.453063,358.998549 177.310156,351.662962 C167.167249,344.327376 160.595171,335.927044 160.595171,335.927044 Z M335.513763,314.916932 C335.513763,314.916932 328.207803,377.838935 331.860783,405.581076 C335.513763,433.323218 322.846083,463.541501 329.179923,515.587029 C335.513763,567.632556 342.710189,656.396269 342.710188,692.257065 C342.710188,728.11786 336.132634,767.114114 336.132633,812.37808 C336.132633,857.642046 349.958643,925.070628 349.958642,944.344366 C349.958641,963.618104 358.543419,1034.86613 358.543419,1034.86613 C358.543419,1034.86613 364.513056,1070.62785 361.528238,1070.62789 C358.54342,1070.62794 345.593687,1086.24003 335.453519,1081.62818 C325.31335,1077.01633 324.582207,975.680014 324.582207,975.680014 C324.582207,975.680014 316.054935,874.662478 316.054935,771.679499 C316.054935,668.69652 311.84059,605.728093 307.240136,578.502844 C302.639681,551.277595 294.846292,546.625533 298.28568,515.27132 C301.725067,483.917107 318.445529,458.223974 318.445529,431.902525 C318.445529,405.581076 298.5869,396.174811 308.516214,371.769281 C318.445529,347.36375 310.783581,332.318059 319.981752,319.993035 C329.179923,307.66801 335.513763,314.916932 335.513763,314.916932 Z M280.716325,1030.23574 C280.716325,1030.23574 279.040446,1042.04077 286.562736,1042.04077 C294.085026,1042.04077 296.248336,1031.36857 296.248336,1031.36857 L280.716325,1030.23574 Z M288.569958,1069.47029 L305.350664,1072.8069 L302.426089,1080.75843 L289.788531,1077.48992 L288.569958,1069.47029 Z M245.084709,994.192313 L268.897538,995.260151 L267.465373,1001.24933 L245.084709,994.192313 Z M265.822353,920.121452 L286.313545,920.155499 L283.879137,933.062419 L265.822353,920.121452 Z M266.030469,732.810172 L287.348647,732.327323 L284.881379,749.914162 L275.442232,740.278852 L266.030469,732.810172 Z M277.231272,677.558241 C278.671548,673.428354 280.97647,670.398872 280.97647,670.398872 L278.264264,683.534075 L279.516921,690.780662 L286.03697,689.130928 L286.03697,669.405318 L276.107655,671.058146 L277.231272,677.558241 L277.231272,677.558241 Z M277.022269,412.489528 L279.70313,419.373218 L284.177619,414.724251 L277.022269,412.489528 Z" id="Path-1110"></path>
                </g>
                <g id="gegant-bg-3" transform="translate(758.922573, 1027.765210) scale(-1, -1) rotate(-272.000000) translate(-758.922573, -1027.765210) translate(469.922573, 414.265210)" fill="#8C4C35" opacity="0.140158582" sketch:type="MSShapeGroup">
                    <path d="M277.231272,677.558241 C276.053112,680.936528 275.453521,685.05114 277.167403,688.846171 L278.264264,683.534075 L277.231272,677.558241 L277.231272,677.558241 Z M220.847434,1142.32784 L255.077006,1149.45296 C255.077006,1149.45296 250.295818,1172.23971 258.48901,1179.08935 C266.682202,1185.93899 287.992166,1178.74578 291.861474,1172.96398 C295.730782,1167.18217 290.15821,1152.65647 290.15821,1152.65647 L297.006863,1139.16456 L312.842832,1141.88523 C312.842832,1141.88523 312.382787,1201.39325 316.739527,1211.27308 C321.096267,1221.15291 338.39178,1226.1083 351.700243,1226.1083 C365.008706,1226.10829 382.731409,1206.52506 371.098826,1198.02259 C359.466243,1189.52012 345.182932,1174.13396 345.182932,1174.13396 C345.182932,1174.13396 349.509556,1161.29204 349.50955,1151.58863 C349.509545,1141.88523 353.80879,1135.05725 362.453805,1138.47124 C371.098821,1141.88523 385.447863,1140.15812 385.447863,1140.15812 C385.447863,1140.15812 401.954721,1167.07694 401.954732,1179.70839 C401.954743,1192.33983 423.847972,1217.4294 436.515647,1221.76885 C449.183321,1226.1083 480.367826,1221.53052 480.367836,1208.10361 C480.367847,1194.6767 471.109416,1180.94336 464.531867,1168.82881 C457.954318,1156.71426 450.160923,1147.72894 454.758639,1139.26051 C459.356356,1130.79209 479.820152,1127.61334 487.068617,1139.60099 C494.317082,1151.58864 497.540128,1176.60701 503.816463,1176.60701 C510.092797,1176.60701 526.112237,1178.43317 529.521502,1149.0382 C532.930768,1119.64324 516.85656,1113.00097 510.336512,1104.22303 C503.816463,1095.44508 499.038004,1047.22521 495.108459,1022.75158 C491.178915,998.277953 442.731737,811.737377 442.731737,811.737377 C442.731737,811.737377 422.024215,722.110125 416.665233,650.722784 C411.306251,579.335443 398.616664,556.768452 412.930102,524.99639 C427.24354,493.224327 449.380489,439.733342 449.380489,439.733342 L452.792493,508.81167 L459.736988,538.101401 C459.736988,538.101401 455.864934,572.067952 466.131073,578.577128 C476.397211,585.086304 525.331792,577.345242 546.192673,564.469277 C567.053554,551.593313 580.882291,547.622191 576.799388,536.309289 C572.716484,524.996386 549.237725,523.922357 534.650461,530.115825 C520.063198,536.309292 504.287461,539.135192 504.287461,539.135192 L492.285204,535.83263 L493.386027,455.979966 C493.386027,455.979966 497.77014,421.973173 506.2673,395.401015 C514.76446,368.828856 518.357185,313.140299 518.357185,303.879504 C518.357185,294.618709 511.839874,282.84463 511.839874,282.84463 C511.839874,282.84463 478.834357,287.617405 457.674999,282.42059 C436.515641,277.223775 406.445646,262.453556 395.946757,262.453555 C385.447868,262.453553 380.294253,240.357033 373.349763,232.783116 C366.405273,225.2092 356.475953,219.736913 356.475953,219.736913 C356.475953,219.736913 362.823479,214.468909 374.135674,208.513774 C385.447868,202.558639 395.237521,202.456498 400.26516,196.566362 C405.2928,190.676226 406.308739,171.402512 409.619418,161.866249 C412.930097,152.329985 417.440196,149.268849 426.977919,149.268848 C436.515641,149.268847 437.452173,130.611076 433.82931,123.003112 C430.206446,115.395149 417.63462,114.435642 425.731962,100.835401 C433.829304,87.2351602 443.336916,91.5374682 443.336916,60.6258591 C443.336916,29.71425 392.030892,0.433807658 359.416958,0.433806146 C326.803024,0.433804635 282.597582,23.2143656 278.44622,34.9203518 C274.294857,46.6263381 279.878384,62.5263024 271.411358,72.4061313 C262.944332,82.2859602 256.944573,91.1629494 261.268451,103.763445 C265.592329,116.363942 285.782304,149.705269 285.782302,179.109522 C285.782299,208.513774 290.749696,234.179044 276.009074,246.194551 C261.268452,258.210057 244.066037,275.211905 227.893249,275.211905 C211.72046,275.211905 165.494105,266.919906 146.339239,279.826825 C127.184373,292.733745 113.812929,293.62517 103.612517,306.501125 C93.4121062,319.377081 98.8094239,460.146084 98.8094239,460.146084 C98.8094239,460.146084 96.7446958,527.026831 90.9557908,533.081011 C85.1668857,539.135192 60.3791984,536.934516 60.3791984,536.934516 L41.4981662,536.142149 C41.4981662,536.142149 42.6236339,516.178221 30.5337496,512.494939 C18.4438653,508.811658 6.68806031,507.641678 2.60789529,521.891919 C-1.47226974,536.142161 0.173488435,562.649321 6.93451324,562.649309 C13.695538,562.649297 50.6662117,573.562929 68.3587963,579.344734 C86.0513808,585.126539 113.834839,599.478897 130.087038,585.745576 C146.339237,572.012254 154.053217,539.52209 154.053215,491.986247 C154.053213,444.450403 145.161738,430.683023 151.925505,420.871288 C158.689272,411.059553 167.033071,427.129751 172.027848,439.179304 C177.022625,451.228857 200.931296,502.002252 200.931299,519.072206 C200.931302,536.142161 205.775476,552.490913 200.356242,592.52403 C194.937009,632.557146 196.883997,654.517504 192.560115,662.469009 C188.236233,670.420514 174.771693,718.869461 174.771691,785.644971 C174.771689,852.420482 153.130394,935.377617 166.52921,991.898781 C179.928026,1048.41994 185.511564,1042.95073 180.141626,1075.61424 C174.771689,1108.27774 161.570037,1133.25276 170.855828,1141.14548 C180.141619,1149.0382 191.393579,1159.90544 206.120502,1159.9054 C220.847426,1159.90535 220.847434,1142.32784 220.847434,1142.32784 Z M369.034098,88.3246652 C369.034098,88.3246652 358.07242,100.541359 346.166006,107.081483 C334.259591,113.621607 326.7373,115.24039 334.229469,118.477953 C341.721638,121.715516 349.975073,125.986871 359.504585,122.232411 C369.034098,118.477952 375.433659,111.869734 375.433659,103.435356 C375.433659,95.0009782 369.034098,88.3246652 369.034098,88.3246652 Z M409.41404,336.617271 L439.106141,352.003433 C439.106141,352.003433 454.361578,361.193035 450.037697,370.178356 C445.713816,379.163677 435.053359,380.782458 435.053359,380.782458 C435.053359,380.782458 433.59381,358.546654 423.90821,358.546653 C414.22261,358.546651 406.182769,353.346743 406.182769,347.357561 C406.182769,341.368379 409.41404,336.617271 409.41404,336.617271 Z M160.595171,335.927044 C160.595171,335.927044 173.049259,320.751355 202.163564,325.706745 C231.277869,330.662136 237.912935,342.32479 237.912929,350.452745 C237.912924,358.5807 227.556431,357.478814 223.172306,350.078228 C218.788181,342.677642 203.469765,338.576523 196.22131,344.327375 C188.972855,350.078228 187.453063,358.998549 177.310156,351.662962 C167.167249,344.327376 160.595171,335.927044 160.595171,335.927044 Z M335.513763,314.916932 C335.513763,314.916932 328.207803,377.838935 331.860783,405.581076 C335.513763,433.323218 322.846083,463.541501 329.179923,515.587029 C335.513763,567.632556 342.710189,656.396269 342.710188,692.257065 C342.710188,728.11786 336.132634,767.114114 336.132633,812.37808 C336.132633,857.642046 349.958643,925.070628 349.958642,944.344366 C349.958641,963.618104 358.543419,1034.86613 358.543419,1034.86613 C358.543419,1034.86613 364.513056,1070.62785 361.528238,1070.62789 C358.54342,1070.62794 345.593687,1086.24003 335.453519,1081.62818 C325.31335,1077.01633 324.582207,975.680014 324.582207,975.680014 C324.582207,975.680014 316.054935,874.662478 316.054935,771.679499 C316.054935,668.69652 311.84059,605.728093 307.240136,578.502844 C302.639681,551.277595 294.846292,546.625533 298.28568,515.27132 C301.725067,483.917107 318.445529,458.223974 318.445529,431.902525 C318.445529,405.581076 298.5869,396.174811 308.516214,371.769281 C318.445529,347.36375 310.783581,332.318059 319.981752,319.993035 C329.179923,307.66801 335.513763,314.916932 335.513763,314.916932 Z M280.716325,1030.23574 C280.716325,1030.23574 279.040446,1042.04077 286.562736,1042.04077 C294.085026,1042.04077 296.248336,1031.36857 296.248336,1031.36857 L280.716325,1030.23574 Z M288.569958,1069.47029 L305.350664,1072.8069 L302.426089,1080.75843 L289.788531,1077.48992 L288.569958,1069.47029 Z M245.084709,994.192313 L268.897538,995.260151 L267.465373,1001.24933 L245.084709,994.192313 Z M265.822353,920.121452 L286.313545,920.155499 L283.879137,933.062419 L265.822353,920.121452 Z M266.030469,732.810172 L287.348647,732.327323 L284.881379,749.914162 L275.442232,740.278852 L266.030469,732.810172 Z M277.231272,677.558241 C278.671548,673.428354 280.97647,670.398872 280.97647,670.398872 L278.264264,683.534075 L279.516921,690.780662 L286.03697,689.130928 L286.03697,669.405318 L276.107655,671.058146 L277.231272,677.558241 L277.231272,677.558241 Z M277.022269,412.489528 L279.70313,419.373218 L284.177619,414.724251 L277.022269,412.489528 Z" id="Path-1110"></path>
                </g>
                <g id="gegant-bg-2" transform="translate(758.922573, 1584.438988) rotate(-272.000000) translate(-758.922573, -1584.438988) translate(469.922573, 970.938988)" fill="#000000" sketch:type="MSShapeGroup">
                    <path d="M277.231272,677.558241 C276.053112,680.936528 275.453521,685.05114 277.167403,688.846171 L278.264264,683.534075 L277.231272,677.558241 L277.231272,677.558241 Z M220.847434,1142.32784 L255.077006,1149.45296 C255.077006,1149.45296 250.295818,1172.23971 258.48901,1179.08935 C266.682202,1185.93899 287.992166,1178.74578 291.861474,1172.96398 C295.730782,1167.18217 290.15821,1152.65647 290.15821,1152.65647 L297.006863,1139.16456 L312.842832,1141.88523 C312.842832,1141.88523 312.382787,1201.39325 316.739527,1211.27308 C321.096267,1221.15291 338.39178,1226.1083 351.700243,1226.1083 C365.008706,1226.10829 382.731409,1206.52506 371.098826,1198.02259 C359.466243,1189.52012 345.182932,1174.13396 345.182932,1174.13396 C345.182932,1174.13396 349.509556,1161.29204 349.50955,1151.58863 C349.509545,1141.88523 353.80879,1135.05725 362.453805,1138.47124 C371.098821,1141.88523 385.447863,1140.15812 385.447863,1140.15812 C385.447863,1140.15812 401.954721,1167.07694 401.954732,1179.70839 C401.954743,1192.33983 423.847972,1217.4294 436.515647,1221.76885 C449.183321,1226.1083 480.367826,1221.53052 480.367836,1208.10361 C480.367847,1194.6767 471.109416,1180.94336 464.531867,1168.82881 C457.954318,1156.71426 450.160923,1147.72894 454.758639,1139.26051 C459.356356,1130.79209 479.820152,1127.61334 487.068617,1139.60099 C494.317082,1151.58864 497.540128,1176.60701 503.816463,1176.60701 C510.092797,1176.60701 526.112237,1178.43317 529.521502,1149.0382 C532.930768,1119.64324 516.85656,1113.00097 510.336512,1104.22303 C503.816463,1095.44508 499.038004,1047.22521 495.108459,1022.75158 C491.178915,998.277953 442.731737,811.737377 442.731737,811.737377 C442.731737,811.737377 422.024215,722.110125 416.665233,650.722784 C411.306251,579.335443 398.616664,556.768452 412.930102,524.99639 C427.24354,493.224327 449.380489,439.733342 449.380489,439.733342 L452.792493,508.81167 L459.736988,538.101401 C459.736988,538.101401 455.864934,572.067952 466.131073,578.577128 C476.397211,585.086304 525.331792,577.345242 546.192673,564.469277 C567.053554,551.593313 580.882291,547.622191 576.799388,536.309289 C572.716484,524.996386 549.237725,523.922357 534.650461,530.115825 C520.063198,536.309292 504.287461,539.135192 504.287461,539.135192 L492.285204,535.83263 L493.386027,455.979966 C493.386027,455.979966 497.77014,421.973173 506.2673,395.401015 C514.76446,368.828856 518.357185,313.140299 518.357185,303.879504 C518.357185,294.618709 511.839874,282.84463 511.839874,282.84463 C511.839874,282.84463 478.834357,287.617405 457.674999,282.42059 C436.515641,277.223775 406.445646,262.453556 395.946757,262.453555 C385.447868,262.453553 380.294253,240.357033 373.349763,232.783116 C366.405273,225.2092 356.475953,219.736913 356.475953,219.736913 C356.475953,219.736913 362.823479,214.468909 374.135674,208.513774 C385.447868,202.558639 395.237521,202.456498 400.26516,196.566362 C405.2928,190.676226 406.308739,171.402512 409.619418,161.866249 C412.930097,152.329985 417.440196,149.268849 426.977919,149.268848 C436.515641,149.268847 437.452173,130.611076 433.82931,123.003112 C430.206446,115.395149 417.63462,114.435642 425.731962,100.835401 C433.829304,87.2351602 443.336916,91.5374682 443.336916,60.6258591 C443.336916,29.71425 392.030892,0.433807658 359.416958,0.433806146 C326.803024,0.433804635 282.597582,23.2143656 278.44622,34.9203518 C274.294857,46.6263381 279.878384,62.5263024 271.411358,72.4061313 C262.944332,82.2859602 256.944573,91.1629494 261.268451,103.763445 C265.592329,116.363942 285.782304,149.705269 285.782302,179.109522 C285.782299,208.513774 290.749696,234.179044 276.009074,246.194551 C261.268452,258.210057 244.066037,275.211905 227.893249,275.211905 C211.72046,275.211905 165.494105,266.919906 146.339239,279.826825 C127.184373,292.733745 113.812929,293.62517 103.612517,306.501125 C93.4121062,319.377081 98.8094239,460.146084 98.8094239,460.146084 C98.8094239,460.146084 96.7446958,527.026831 90.9557908,533.081011 C85.1668857,539.135192 60.3791984,536.934516 60.3791984,536.934516 L41.4981662,536.142149 C41.4981662,536.142149 42.6236339,516.178221 30.5337496,512.494939 C18.4438653,508.811658 6.68806031,507.641678 2.60789529,521.891919 C-1.47226974,536.142161 0.173488435,562.649321 6.93451324,562.649309 C13.695538,562.649297 50.6662117,573.562929 68.3587963,579.344734 C86.0513808,585.126539 113.834839,599.478897 130.087038,585.745576 C146.339237,572.012254 154.053217,539.52209 154.053215,491.986247 C154.053213,444.450403 145.161738,430.683023 151.925505,420.871288 C158.689272,411.059553 167.033071,427.129751 172.027848,439.179304 C177.022625,451.228857 200.931296,502.002252 200.931299,519.072206 C200.931302,536.142161 205.775476,552.490913 200.356242,592.52403 C194.937009,632.557146 196.883997,654.517504 192.560115,662.469009 C188.236233,670.420514 174.771693,718.869461 174.771691,785.644971 C174.771689,852.420482 153.130394,935.377617 166.52921,991.898781 C179.928026,1048.41994 185.511564,1042.95073 180.141626,1075.61424 C174.771689,1108.27774 161.570037,1133.25276 170.855828,1141.14548 C180.141619,1149.0382 191.393579,1159.90544 206.120502,1159.9054 C220.847426,1159.90535 220.847434,1142.32784 220.847434,1142.32784 Z M369.034098,88.3246652 C369.034098,88.3246652 358.07242,100.541359 346.166006,107.081483 C334.259591,113.621607 326.7373,115.24039 334.229469,118.477953 C341.721638,121.715516 349.975073,125.986871 359.504585,122.232411 C369.034098,118.477952 375.433659,111.869734 375.433659,103.435356 C375.433659,95.0009782 369.034098,88.3246652 369.034098,88.3246652 Z M409.41404,336.617271 L439.106141,352.003433 C439.106141,352.003433 454.361578,361.193035 450.037697,370.178356 C445.713816,379.163677 435.053359,380.782458 435.053359,380.782458 C435.053359,380.782458 433.59381,358.546654 423.90821,358.546653 C414.22261,358.546651 406.182769,353.346743 406.182769,347.357561 C406.182769,341.368379 409.41404,336.617271 409.41404,336.617271 Z M160.595171,335.927044 C160.595171,335.927044 173.049259,320.751355 202.163564,325.706745 C231.277869,330.662136 237.912935,342.32479 237.912929,350.452745 C237.912924,358.5807 227.556431,357.478814 223.172306,350.078228 C218.788181,342.677642 203.469765,338.576523 196.22131,344.327375 C188.972855,350.078228 187.453063,358.998549 177.310156,351.662962 C167.167249,344.327376 160.595171,335.927044 160.595171,335.927044 Z M335.513763,314.916932 C335.513763,314.916932 328.207803,377.838935 331.860783,405.581076 C335.513763,433.323218 322.846083,463.541501 329.179923,515.587029 C335.513763,567.632556 342.710189,656.396269 342.710188,692.257065 C342.710188,728.11786 336.132634,767.114114 336.132633,812.37808 C336.132633,857.642046 349.958643,925.070628 349.958642,944.344366 C349.958641,963.618104 358.543419,1034.86613 358.543419,1034.86613 C358.543419,1034.86613 364.513056,1070.62785 361.528238,1070.62789 C358.54342,1070.62794 345.593687,1086.24003 335.453519,1081.62818 C325.31335,1077.01633 324.582207,975.680014 324.582207,975.680014 C324.582207,975.680014 316.054935,874.662478 316.054935,771.679499 C316.054935,668.69652 311.84059,605.728093 307.240136,578.502844 C302.639681,551.277595 294.846292,546.625533 298.28568,515.27132 C301.725067,483.917107 318.445529,458.223974 318.445529,431.902525 C318.445529,405.581076 298.5869,396.174811 308.516214,371.769281 C318.445529,347.36375 310.783581,332.318059 319.981752,319.993035 C329.179923,307.66801 335.513763,314.916932 335.513763,314.916932 Z M280.716325,1030.23574 C280.716325,1030.23574 279.040446,1042.04077 286.562736,1042.04077 C294.085026,1042.04077 296.248336,1031.36857 296.248336,1031.36857 L280.716325,1030.23574 Z M288.569958,1069.47029 L305.350664,1072.8069 L302.426089,1080.75843 L289.788531,1077.48992 L288.569958,1069.47029 Z M245.084709,994.192313 L268.897538,995.260151 L267.465373,1001.24933 L245.084709,994.192313 Z M265.822353,920.121452 L286.313545,920.155499 L283.879137,933.062419 L265.822353,920.121452 Z M266.030469,732.810172 L287.348647,732.327323 L284.881379,749.914162 L275.442232,740.278852 L266.030469,732.810172 Z M277.231272,677.558241 C278.671548,673.428354 280.97647,670.398872 280.97647,670.398872 L278.264264,683.534075 L279.516921,690.780662 L286.03697,689.130928 L286.03697,669.405318 L276.107655,671.058146 L277.231272,677.558241 L277.231272,677.558241 Z M277.022269,412.489528 L279.70313,419.373218 L284.177619,414.724251 L277.022269,412.489528 Z" id="Path-1110"></path>
                </g>
            </g>
        </g>
    </g>
</svg>