<?xml version="1.0" encoding="UTF-8" standalone="no"?>
<svg width="1180px" height="1739px" viewBox="0 0 1180 1739" version="1.1" xmlns="http://www.w3.org/2000/svg" xmlns:xlink="http://www.w3.org/1999/xlink" xmlns:sketch="http://www.bohemiancoding.com/sketch/ns">
    <!-- Generator: Sketch 3.2.2 (9983) - http://www.bohemiancoding.com/sketch -->
    <title>bg</title>
    <desc>Created with Sketch.</desc>
    <defs></defs>
    <g id="Blank-Project" stroke="none" stroke-width="1" fill="none" fill-rule="evenodd" sketch:type="MSPage">
        <g id="Portada" sketch:type="MSArtboardGroup" fill="#8C4C35">
            <g id="bg" sketch:type="MSLayerGroup" transform="translate(-108.000000, -254.000000)">
                <g id="gegant-bg-3" transform="translate(688.708617, 1007.717715) scale(-1, -1) rotate(-272.000000) translate(-688.708617, -1007.717715) translate(-295.791383, 353.217715)" sketch:type="MSShapeGroup">
                    <path d="M937.231272,759.558241 C936.053112,762.936528 935.453521,767.05114 937.167403,770.846171 L938.264264,765.534075 L937.231272,759.558241 L937.231272,759.558241 Z M880.847434,1224.32784 L915.077006,1231.45296 C915.077006,1231.45296 910.295818,1254.23971 918.48901,1261.08935 C926.682202,1267.93899 947.992166,1260.74578 951.861474,1254.96398 C955.730782,1249.18217 950.15821,1234.65647 950.15821,1234.65647 L957.006863,1221.16456 L972.842832,1223.88523 C972.842832,1223.88523 972.382787,1283.39325 976.739527,1293.27308 C981.096267,1303.15291 998.39178,1308.1083 1011.70024,1308.1083 C1025.00871,1308.10829 1042.73141,1288.52506 1031.09883,1280.02259 C1019.46624,1271.52012 1005.18293,1256.13396 1005.18293,1256.13396 C1005.18293,1256.13396 1009.50956,1243.29204 1009.50955,1233.58863 C1009.50954,1223.88523 1013.80879,1217.05725 1022.45381,1220.47124 C1031.09882,1223.88523 1045.44786,1222.15812 1045.44786,1222.15812 C1045.44786,1222.15812 1061.95472,1249.07694 1061.95473,1261.70839 C1061.95474,1274.33983 1083.84797,1299.4294 1096.51565,1303.76885 C1109.18332,1308.1083 1140.36783,1303.53052 1140.36784,1290.10361 C1140.36785,1276.6767 1131.10942,1262.94336 1124.53187,1250.82881 C1117.95432,1238.71426 1110.16092,1229.72894 1114.75864,1221.26051 C1119.35636,1212.79209 1139.82015,1209.61334 1147.06862,1221.60099 C1154.31708,1233.58864 1157.54013,1258.60701 1163.81646,1258.60701 C1170.0928,1258.60701 1186.11224,1260.43317 1189.5215,1231.0382 C1192.93077,1201.64324 1176.85656,1195.00097 1170.33651,1186.22303 C1163.81646,1177.44508 1159.038,1129.22521 1155.10846,1104.75158 C1151.17892,1080.27795 1102.73174,893.737377 1102.73174,893.737377 C1102.73174,893.737377 1082.02421,804.110125 1076.66523,732.722784 C1071.30625,661.335443 1058.61666,638.768452 1072.9301,606.99639 C1087.24354,575.224327 1109.38049,521.733342 1109.38049,521.733342 L1112.79249,590.81167 L1119.73699,620.101401 C1119.73699,620.101401 1115.86493,654.067952 1126.13107,660.577128 C1136.39721,667.086304 1185.33179,659.345242 1206.19267,646.469277 C1227.05355,633.593313 1240.88229,629.622191 1236.79939,618.309289 C1232.71648,606.996386 1209.23773,605.922357 1194.65046,612.115825 C1180.0632,618.309292 1164.28746,621.135192 1164.28746,621.135192 L1152.2852,617.83263 L1153.38603,537.979966 C1153.38603,537.979966 1157.77014,503.973173 1166.2673,477.401015 C1174.76446,450.828856 1178.35718,395.140299 1178.35718,385.879504 C1178.35718,376.618709 1171.83987,364.84463 1171.83987,364.84463 C1171.83987,364.84463 1138.83436,369.617405 1117.675,364.42059 C1096.51564,359.223775 1066.44565,344.453556 1055.94676,344.453555 C1045.44787,344.453553 1040.29425,322.357033 1033.34976,314.783116 C1026.40527,307.2092 1016.47595,301.736913 1016.47595,301.736913 C1016.47595,301.736913 1022.82348,296.468909 1034.13567,290.513774 C1045.44787,284.558639 1055.23752,284.456498 1060.26516,278.566362 C1065.2928,272.676226 1066.30874,253.402512 1069.61942,243.866249 C1072.9301,234.329985 1077.4402,231.268849 1086.97792,231.268848 C1096.51564,231.268847 1097.45217,212.611076 1093.82931,205.003112 C1090.20645,197.395149 1077.63462,196.435642 1085.73196,182.835401 C1093.8293,169.23516 1103.33692,173.537468 1103.33692,142.625859 C1103.33692,111.71425 1052.03089,82.4338077 1019.41696,82.4338061 C986.803024,82.4338046 942.597582,105.214366 938.44622,116.920352 C934.294857,128.626338 939.878384,144.526302 931.411358,154.406131 C922.944332,164.28596 916.944573,173.162949 921.268451,185.763445 C925.592329,198.363942 945.782304,231.705269 945.782302,261.109522 C945.782299,290.513774 950.749696,316.179044 936.009074,328.194551 C921.268452,340.210057 904.066037,357.211905 887.893249,357.211905 C871.72046,357.211905 825.494105,348.919906 806.339239,361.826825 C787.184373,374.733745 773.812929,375.62517 763.612517,388.501125 C753.412106,401.377081 758.809424,542.146084 758.809424,542.146084 C758.809424,542.146084 756.744696,609.026831 750.955791,615.081011 C745.166886,621.135192 720.379198,618.934516 720.379198,618.934516 L701.498166,618.142149 C701.498166,618.142149 702.623634,598.178221 690.53375,594.494939 C678.443865,590.811658 666.68806,589.641678 662.607895,603.891919 C658.52773,618.142161 660.173488,644.649321 666.934513,644.649309 C673.695538,644.649297 710.666212,655.562929 728.358796,661.344734 C746.051381,667.126539 773.834839,681.478897 790.087038,667.745576 C806.339237,654.012254 814.053217,621.52209 814.053215,573.986247 C814.053213,526.450403 805.161738,512.683023 811.925505,502.871288 C818.689272,493.059553 827.033071,509.129751 832.027848,521.179304 C837.022625,533.228857 860.931296,584.002252 860.931299,601.072206 C860.931302,618.142161 865.775476,634.490913 860.356242,674.52403 C854.937009,714.557146 856.883997,736.517504 852.560115,744.469009 C848.236233,752.420514 834.771693,800.869461 834.771691,867.644971 C834.771689,934.420482 813.130394,1017.37762 826.52921,1073.89878 C839.928026,1130.41994 845.511564,1124.95073 840.141626,1157.61424 C834.771689,1190.27774 821.570037,1215.25276 830.855828,1223.14548 C840.141619,1231.0382 851.393579,1241.90544 866.120502,1241.9054 C880.847426,1241.90535 880.847434,1224.32784 880.847434,1224.32784 Z M1029.0341,170.324665 C1029.0341,170.324665 1018.07242,182.541359 1006.16601,189.081483 C994.259591,195.621607 986.7373,197.24039 994.229469,200.477953 C1001.72164,203.715516 1009.97507,207.986871 1019.50459,204.232411 C1029.0341,200.477952 1035.43366,193.869734 1035.43366,185.435356 C1035.43366,177.000978 1029.0341,170.324665 1029.0341,170.324665 Z M1069.41404,418.617271 L1099.10614,434.003433 C1099.10614,434.003433 1114.36158,443.193035 1110.0377,452.178356 C1105.71382,461.163677 1095.05336,462.782458 1095.05336,462.782458 C1095.05336,462.782458 1093.59381,440.546654 1083.90821,440.546653 C1074.22261,440.546651 1066.18277,435.346743 1066.18277,429.357561 C1066.18277,423.368379 1069.41404,418.617271 1069.41404,418.617271 Z M820.595171,417.927044 C820.595171,417.927044 833.049259,402.751355 862.163564,407.706745 C891.277869,412.662136 897.912935,424.32479 897.912929,432.452745 C897.912924,440.5807 887.556431,439.478814 883.172306,432.078228 C878.788181,424.677642 863.469765,420.576523 856.22131,426.327375 C848.972855,432.078228 847.453063,440.998549 837.310156,433.662962 C827.167249,426.327376 820.595171,417.927044 820.595171,417.927044 Z M995.513763,396.916932 C995.513763,396.916932 988.207803,459.838935 991.860783,487.581076 C995.513763,515.323218 982.846083,545.541501 989.179923,597.587029 C995.513763,649.632556 1002.71019,738.396269 1002.71019,774.257065 C1002.71019,810.11786 996.132634,849.114114 996.132633,894.37808 C996.132633,939.642046 1009.95864,1007.07063 1009.95864,1026.34437 C1009.95864,1045.6181 1018.54342,1116.86613 1018.54342,1116.86613 C1018.54342,1116.86613 1024.51306,1152.62785 1021.52824,1152.62789 C1018.54342,1152.62794 1005.59369,1168.24003 995.453519,1163.62818 C985.31335,1159.01633 984.582207,1057.68001 984.582207,1057.68001 C984.582207,1057.68001 976.054935,956.662478 976.054935,853.679499 C976.054935,750.69652 971.84059,687.728093 967.240136,660.502844 C962.639681,633.277595 954.846292,628.625533 958.28568,597.27132 C961.725067,565.917107 978.445529,540.223974 978.445529,513.902525 C978.445529,487.581076 958.5869,478.174811 968.516214,453.769281 C978.445529,429.36375 970.783581,414.318059 979.981752,401.993035 C989.179923,389.66801 995.513763,396.916932 995.513763,396.916932 Z M940.716325,1112.23574 C940.716325,1112.23574 939.040446,1124.04077 946.562736,1124.04077 C954.085026,1124.04077 956.248336,1113.36857 956.248336,1113.36857 L940.716325,1112.23574 Z M948.569958,1151.47029 L965.350664,1154.8069 L962.426089,1162.75843 L949.788531,1159.48992 L948.569958,1151.47029 Z M905.084709,1076.19231 L928.897538,1077.26015 L927.465373,1083.24933 L905.084709,1076.19231 Z M925.822353,1002.12145 L946.313545,1002.1555 L943.879137,1015.06242 L925.822353,1002.12145 Z M926.030469,814.810172 L947.348647,814.327323 L944.881379,831.914162 L935.442232,822.278852 L926.030469,814.810172 Z M937.231272,759.558241 C938.671548,755.428354 940.97647,752.398872 940.97647,752.398872 L938.264264,765.534075 L939.516921,772.780662 L946.03697,771.130928 L946.03697,751.405318 L936.107655,753.058146 L937.231272,759.558241 L937.231272,759.558241 Z M937.022269,494.489528 L939.70313,501.373218 L944.177619,496.724251 L937.022269,494.489528 Z" id="Path-1110" opacity="0.0507229478"></path>
                    <path d="M1668.52204,678.030256 C1667.34388,681.408543 1666.74429,685.523155 1668.45817,689.318186 L1669.55503,684.00609 L1668.52204,678.030256 L1668.52204,678.030256 Z M1612.1382,1142.79986 L1646.36777,1149.92497 C1646.36777,1149.92497 1641.58659,1172.71172 1649.77978,1179.56136 C1657.97297,1186.41101 1679.28293,1179.2178 1683.15224,1173.43599 C1687.02155,1167.65419 1681.44898,1153.12849 1681.44898,1153.12849 L1688.29763,1139.63658 L1704.1336,1142.35725 C1704.1336,1142.35725 1703.67356,1201.86526 1708.0303,1211.74509 C1712.38704,1221.62492 1729.68255,1226.58031 1742.99101,1226.58031 C1756.29947,1226.58031 1774.02218,1206.99708 1762.38959,1198.49461 C1750.75701,1189.99214 1736.4737,1174.60597 1736.4737,1174.60597 C1736.4737,1174.60597 1740.80032,1161.76405 1740.80032,1152.06065 C1740.80031,1142.35725 1745.09956,1135.52927 1753.74457,1138.94326 C1762.38959,1142.35725 1776.73863,1140.63013 1776.73863,1140.63013 C1776.73863,1140.63013 1793.24549,1167.54895 1793.2455,1180.1804 C1793.24551,1192.81185 1815.13874,1217.90141 1827.80641,1222.24086 C1840.47409,1226.58031 1871.65859,1222.00253 1871.6586,1208.57562 C1871.65862,1195.14871 1862.40018,1181.41538 1855.82264,1169.30083 C1849.24509,1157.18628 1841.45169,1148.20095 1846.04941,1139.73253 C1850.64712,1131.26411 1871.11092,1128.08535 1878.35939,1140.073 C1885.60785,1152.06065 1888.8309,1177.07903 1895.10723,1177.07903 C1901.38357,1177.07902 1917.40301,1178.90519 1920.81227,1149.51022 C1924.22154,1120.11525 1908.14733,1113.47298 1901.62728,1104.69504 C1895.10723,1095.9171 1890.32877,1047.69722 1886.39923,1023.2236 C1882.46968,998.749968 1834.02251,812.209392 1834.02251,812.209392 C1834.02251,812.209392 1813.31498,722.58214 1807.956,651.194799 C1802.59702,579.807458 1789.90743,557.240467 1804.22087,525.468405 C1818.53431,493.696342 1840.67126,440.205357 1840.67126,440.205357 L1844.08326,509.283685 L1851.02776,538.573416 C1851.02776,538.573416 1847.1557,572.539967 1857.42184,579.049143 C1867.68798,585.55832 1916.62256,577.817257 1937.48344,564.941293 C1958.34432,552.065328 1972.17306,548.094206 1968.09016,536.781304 C1964.00725,525.468402 1940.52849,524.394373 1925.94123,530.58784 C1911.35397,536.781307 1895.57823,539.607207 1895.57823,539.607207 L1883.57597,536.304646 L1884.6768,456.451981 C1884.6768,456.451981 1889.06091,422.445189 1897.55807,395.87303 C1906.05523,369.300871 1909.64795,313.612314 1909.64795,304.351519 C1909.64795,295.090724 1903.13064,283.316645 1903.13064,283.316645 C1903.13064,283.316645 1870.12513,288.08942 1848.96577,282.892605 C1827.80641,277.69579 1797.73641,262.925571 1787.23753,262.92557 C1776.73864,262.925568 1771.58502,240.829048 1764.64053,233.255131 C1757.69604,225.681215 1747.76672,220.208929 1747.76672,220.208929 C1747.76672,220.208929 1754.11425,214.940925 1765.42644,208.98579 C1776.73864,203.030655 1786.52829,202.928514 1791.55593,197.038377 C1796.58357,191.148241 1797.59951,171.874527 1800.91019,162.338264 C1804.22086,152.802001 1808.73096,149.740864 1818.26869,149.740863 C1827.80641,149.740862 1828.74294,131.083091 1825.12008,123.475127 C1821.49721,115.867164 1808.92539,114.907657 1817.02273,101.307416 C1825.12007,87.7071754 1834.62768,92.0094833 1834.62768,61.0978742 C1834.62768,30.1862651 1783.32166,0.905822766 1750.70773,0.905821255 C1718.09379,0.905819743 1673.88835,23.6863807 1669.73699,35.3923669 C1665.58563,47.0983532 1671.16915,62.9983175 1662.70213,72.8781464 C1654.2351,82.7579753 1648.23534,91.6349645 1652.55922,104.235461 C1656.8831,116.835957 1677.07307,150.177284 1677.07307,179.581537 C1677.07307,208.98579 1682.04046,234.651059 1667.29984,246.666566 C1652.55922,258.682072 1635.35681,275.68392 1619.18402,275.68392 C1603.01123,275.68392 1556.78487,267.391921 1537.63001,280.29884 C1518.47514,293.20576 1505.1037,294.097185 1494.90329,306.97314 C1484.70287,319.849096 1490.10019,460.618099 1490.10019,460.618099 C1490.10019,460.618099 1488.03546,527.498846 1482.24656,533.553027 C1476.45765,539.607207 1451.66997,537.406531 1451.66997,537.406531 L1432.78893,536.614164 C1432.78893,536.614164 1433.9144,516.650236 1421.82452,512.966954 C1409.73463,509.283673 1397.97883,508.113693 1393.89866,522.363935 C1389.8185,536.614176 1391.46426,563.121336 1398.22528,563.121324 C1404.98631,563.121312 1441.95698,574.034945 1459.64956,579.816749 C1477.34215,585.598554 1505.12561,599.950912 1521.37781,586.217591 C1537.63,572.484269 1545.34399,539.994105 1545.34398,492.458262 C1545.34398,444.922418 1536.45251,431.155038 1543.21627,421.343303 C1549.98004,411.531568 1558.32384,427.601766 1563.31862,439.651319 C1568.31339,451.700872 1592.22206,502.474267 1592.22207,519.544221 C1592.22207,536.614176 1597.06624,552.962929 1591.64701,592.996045 C1586.22778,633.029161 1588.17477,654.989519 1583.85088,662.941024 C1579.527,670.892529 1566.06246,719.341476 1566.06246,786.116986 C1566.06246,852.892497 1544.42116,935.849632 1557.81998,992.370796 C1571.21879,1048.89196 1576.80233,1043.42274 1571.43239,1076.08625 C1566.06246,1108.74976 1552.86081,1133.72478 1562.1466,1141.6175 C1571.43239,1149.51022 1582.68435,1160.37746 1597.41127,1160.37741 C1612.13819,1160.37736 1612.1382,1142.79986 1612.1382,1142.79986 Z M1760.32487,88.7966803 C1760.32487,88.7966803 1749.36319,101.013374 1737.45677,107.553498 C1725.55036,114.093622 1718.02807,115.712405 1725.52024,118.949968 C1733.01241,122.187531 1741.26584,126.458886 1750.79535,122.704426 C1760.32487,118.949967 1766.72443,112.341749 1766.72443,103.907371 C1766.72443,95.4729933 1760.32487,88.7966803 1760.32487,88.7966803 Z M1800.70481,337.089286 L1830.39691,352.475448 C1830.39691,352.475448 1845.65235,361.665051 1841.32847,370.650371 C1837.00458,379.635692 1826.34413,381.254473 1826.34413,381.254473 C1826.34413,381.254473 1824.88458,359.018669 1815.19898,359.018668 C1805.51338,359.018666 1797.47354,353.818758 1797.47354,347.829576 C1797.47354,341.840394 1800.70481,337.089286 1800.70481,337.089286 Z M1551.88594,336.399059 C1551.88594,336.399059 1564.34003,321.22337 1593.45433,326.17876 C1622.56864,331.134151 1629.2037,342.796805 1629.2037,350.92476 C1629.20369,359.052715 1618.8472,357.950829 1614.46307,350.550243 C1610.07895,343.149657 1594.76053,339.048538 1587.51208,344.79939 C1580.26362,350.550243 1578.74383,359.470564 1568.60092,352.134977 C1558.45802,344.799391 1551.88594,336.399059 1551.88594,336.399059 Z M1726.80453,315.388947 C1726.80453,315.388947 1719.49857,378.31095 1723.15155,406.053091 C1726.80453,433.795233 1714.13685,464.013516 1720.47069,516.059044 C1726.80453,568.104571 1734.00096,656.868284 1734.00096,692.72908 C1734.00096,728.589875 1727.4234,767.586129 1727.4234,812.850095 C1727.4234,858.114061 1741.24941,925.542643 1741.24941,944.816381 C1741.24941,964.090119 1749.83419,1035.33815 1749.83419,1035.33815 C1749.83419,1035.33815 1755.80382,1071.09986 1752.81901,1071.09991 C1749.83419,1071.09996 1736.88446,1086.71204 1726.74429,1082.10019 C1716.60412,1077.48835 1715.87297,976.152029 1715.87297,976.152029 C1715.87297,976.152029 1707.3457,875.134493 1707.3457,772.151514 C1707.3457,669.168535 1703.13136,606.200108 1698.5309,578.974859 C1693.93045,551.74961 1686.13706,547.097548 1689.57645,515.743335 C1693.01584,484.389122 1709.7363,458.695989 1709.7363,432.37454 C1709.7363,406.053091 1689.87767,396.646827 1699.80698,372.241296 C1709.7363,347.835765 1702.07435,332.790075 1711.27252,320.46505 C1720.47069,308.140025 1726.80453,315.388947 1726.80453,315.388947 Z M1672.00709,1030.70775 C1672.00709,1030.70775 1670.33121,1042.51279 1677.8535,1042.51278 C1685.37579,1042.51278 1687.5391,1031.84059 1687.5391,1031.84059 L1672.00709,1030.70775 Z M1679.86073,1069.94231 L1696.64143,1073.27892 L1693.71686,1081.23045 L1681.0793,1077.96193 L1679.86073,1069.94231 Z M1636.37548,994.664328 L1660.18831,995.732166 L1658.75614,1001.72135 L1636.37548,994.664328 Z M1657.11312,920.593467 L1677.60431,920.627514 L1675.16991,933.534434 L1657.11312,920.593467 Z M1657.32124,733.282187 L1678.63942,732.799338 L1676.17215,750.386177 L1666.733,740.750867 L1657.32124,733.282187 Z M1668.52204,678.030256 C1669.96232,673.900369 1672.26724,670.870887 1672.26724,670.870887 L1669.55503,684.00609 L1670.80769,691.252677 L1677.32774,689.602943 L1677.32774,669.877333 L1667.39842,671.530161 L1668.52204,678.030256 L1668.52204,678.030256 Z M1668.31304,412.961543 L1670.9939,419.845234 L1675.46839,415.196266 L1668.31304,412.961543 Z" id="Path-1134" opacity="0.052005597" transform="translate(1680.247413, 613.743067) scale(-1, -1) translate(-1680.247413, -613.743067) "></path>
                    <path d="M277.633326,736.524573 C276.455166,739.90286 275.855575,744.017473 277.569457,747.812504 L278.666318,742.500407 L277.633326,736.524573 L277.633326,736.524573 Z M221.249488,1201.29417 L255.47906,1208.41929 C255.47906,1208.41929 250.697872,1231.20604 258.891064,1238.05568 C267.084256,1244.90532 288.39422,1237.71211 292.263528,1231.93031 C296.132836,1226.14851 290.560264,1211.62281 290.560264,1211.62281 L297.408917,1198.1309 L313.244887,1200.85156 C313.244887,1200.85156 312.784841,1260.35958 317.141581,1270.23941 C321.498321,1280.11924 338.793834,1285.07463 352.102297,1285.07463 C365.41076,1285.07463 383.133464,1265.4914 371.50088,1256.98892 C359.868297,1248.48645 345.584987,1233.10029 345.584987,1233.10029 C345.584987,1233.10029 349.91161,1220.25837 349.911604,1210.55497 C349.911599,1200.85156 354.210844,1194.02359 362.85586,1197.43757 C371.500875,1200.85156 385.849917,1199.12445 385.849917,1199.12445 C385.849917,1199.12445 402.356775,1226.04327 402.356786,1238.67472 C402.356797,1251.30617 424.250026,1276.39573 436.917701,1280.73518 C449.585376,1285.07463 480.76988,1280.49685 480.76989,1267.06994 C480.769901,1253.64303 471.51147,1239.9097 464.933921,1227.79514 C458.356372,1215.68059 450.562977,1206.69527 455.160694,1198.22685 C459.75841,1189.75842 480.222207,1186.57967 487.470672,1198.56732 C494.719137,1210.55497 497.942182,1235.57335 504.218517,1235.57334 C510.494851,1235.57334 526.514291,1237.3995 529.923556,1208.00453 C533.332822,1178.60957 517.258615,1171.9673 510.738566,1163.18936 C504.218517,1154.41142 499.440058,1106.19154 495.510514,1081.71791 C491.580969,1057.24429 443.133791,870.703709 443.133791,870.703709 C443.133791,870.703709 422.426269,781.076457 417.067287,709.689116 C411.708305,638.301775 399.018718,615.734785 413.332156,583.962722 C427.645594,552.190659 449.782543,498.699674 449.782543,498.699674 L453.194547,567.778002 L460.139043,597.067733 C460.139043,597.067733 456.266988,631.034285 466.533127,637.543461 C476.799265,644.052637 525.733846,636.311574 546.594727,623.43561 C567.455609,610.559645 581.284345,606.588523 577.201442,595.275621 C573.118538,583.962719 549.639779,582.88869 535.052516,589.082157 C520.465252,595.275624 504.689516,598.101524 504.689516,598.101524 L492.687258,594.798963 L493.788081,514.946298 C493.788081,514.946298 498.172194,480.939506 506.669354,454.367347 C515.166514,427.795188 518.759239,372.106631 518.759239,362.845836 C518.759239,353.585041 512.241929,341.810962 512.241929,341.810962 C512.241929,341.810962 479.236411,346.583737 458.077053,341.386922 C436.917695,336.190108 406.847701,321.419888 396.348812,321.419887 C385.849922,321.419885 380.696307,299.323365 373.751817,291.749448 C366.807327,284.175532 356.878007,278.703246 356.878007,278.703246 C356.878007,278.703246 363.225534,273.435242 374.537728,267.480107 C385.849922,261.524972 395.639575,261.422831 400.667214,255.532694 C405.694854,249.642558 406.710793,230.368845 410.021472,220.832581 C413.332151,211.296318 417.84225,208.235181 427.379973,208.23518 C436.917695,208.235179 437.854227,189.577408 434.231364,181.969444 C430.608501,174.361481 418.036674,173.401974 426.134016,159.801733 C434.231359,146.201492 443.73897,150.5038 443.73897,119.592191 C443.73897,88.6805822 392.432946,59.4001398 359.819012,59.4001383 C327.205078,59.4001368 282.999636,82.1806977 278.848274,93.886684 C274.696911,105.59267 280.280438,121.492635 271.813412,131.372463 C263.346386,141.252292 257.346627,150.129282 261.670505,162.729778 C265.994383,175.330274 286.184358,208.671601 286.184356,238.075854 C286.184353,267.480107 291.15175,293.145377 276.411128,305.160883 C261.670507,317.176389 244.468091,334.178237 228.295303,334.178237 C212.122515,334.178237 165.896159,325.886238 146.741293,338.793158 C127.586427,351.700077 114.214983,352.591502 104.014572,365.467458 C93.8141604,378.343413 99.211478,519.112416 99.211478,519.112416 C99.211478,519.112416 97.14675,585.993163 91.3578449,592.047344 C85.5689399,598.101524 60.7812525,595.900848 60.7812525,595.900848 L41.9002204,595.108481 C41.9002204,595.108481 43.0256881,575.144553 30.9358038,571.461272 C18.8459195,567.77799 7.09011448,566.60801 3.00994946,580.858252 C-1.07021557,595.108493 0.575542602,621.615653 7.3365674,621.615641 C14.0975922,621.615629 51.0682659,632.529262 68.7608504,638.311066 C86.453435,644.092871 114.236893,658.445229 130.489092,644.711908 C146.741291,630.978586 154.455272,598.488423 154.455269,550.952579 C154.455267,503.416735 145.563793,489.649355 152.327559,479.83762 C159.091326,470.025885 167.435126,486.096083 172.429903,498.145636 C177.42468,510.19519 201.33335,560.968584 201.333353,578.038539 C201.333357,595.108493 206.17753,611.457246 200.758297,651.490362 C195.339063,691.523478 197.286051,713.483836 192.962169,721.435341 C188.638287,729.386846 175.173747,777.835793 175.173745,844.611304 C175.173743,911.386814 153.532448,994.343949 166.931264,1050.86511 C180.33008,1107.38628 185.913618,1101.91706 180.54368,1134.58057 C175.173743,1167.24407 161.972091,1192.21909 171.257882,1200.11181 C180.543673,1208.00453 191.795633,1218.87178 206.522557,1218.87173 C221.24948,1218.87168 221.249488,1201.29417 221.249488,1201.29417 Z M369.436153,147.290997 C369.436153,147.290997 358.474474,159.507691 346.56806,166.047815 C334.661645,172.58794 327.139355,174.206722 334.631523,177.444285 C342.123692,180.681848 350.377127,184.953203 359.90664,181.198744 C369.436152,177.444284 375.835714,170.836066 375.835713,162.401688 C375.835713,153.96731 369.436153,147.290997 369.436153,147.290997 Z M409.816094,395.583603 L439.508195,410.969765 C439.508195,410.969765 454.763632,420.159368 450.439751,429.144688 C446.11587,438.130009 435.455413,439.74879 435.455413,439.74879 C435.455413,439.74879 433.995865,417.512986 424.310265,417.512985 C414.624665,417.512983 406.584823,412.313075 406.584823,406.323893 C406.584823,400.334711 409.816094,395.583603 409.816094,395.583603 Z M160.997225,394.893377 C160.997225,394.893377 173.451313,379.717687 202.565618,384.673077 C231.679923,389.628468 238.314989,401.291122 238.314983,409.419077 C238.314978,417.547032 227.958485,416.445146 223.57436,409.04456 C219.190235,401.643974 203.871819,397.542855 196.623364,403.293707 C189.374909,409.04456 187.855117,417.964881 177.71221,410.629295 C167.569303,403.293708 160.997225,394.893377 160.997225,394.893377 Z M335.915817,373.883264 C335.915817,373.883264 328.609857,436.805267 332.262837,464.547409 C335.915817,492.28955 323.248137,522.507833 329.581977,574.553361 C335.915817,626.598888 343.112243,715.362601 343.112242,751.223397 C343.112242,787.084192 336.534688,826.080446 336.534688,871.344412 C336.534687,916.608378 350.360698,984.03696 350.360696,1003.3107 C350.360695,1022.58444 358.945473,1093.83246 358.945473,1093.83246 C358.945473,1093.83246 364.91511,1129.59418 361.930292,1129.59423 C358.945474,1129.59427 345.995741,1145.20636 335.855573,1140.59451 C325.715404,1135.98266 324.984261,1034.64635 324.984261,1034.64635 C324.984261,1034.64635 316.45699,933.62881 316.45699,830.645831 C316.45699,727.662852 312.242645,664.694425 307.64219,637.469176 C303.041736,610.243927 295.248346,605.591865 298.687734,574.237652 C302.127122,542.883439 318.847583,517.190306 318.847583,490.868858 C318.847583,464.547409 298.988954,455.141144 308.918269,430.735613 C318.847583,406.330083 311.185635,391.284392 320.383806,378.959367 C329.581977,366.634342 335.915817,373.883264 335.915817,373.883264 Z M281.118379,1089.20207 C281.118379,1089.20207 279.4425,1101.0071 286.96479,1101.0071 C294.48708,1101.0071 296.65039,1090.33491 296.65039,1090.33491 L281.118379,1089.20207 Z M288.972012,1128.43663 L305.752718,1131.77324 L302.828143,1139.72476 L290.190585,1136.45625 L288.972012,1128.43663 Z M245.486763,1053.15864 L269.299592,1054.22648 L267.867427,1060.21567 L245.486763,1053.15864 Z M266.224408,979.087784 L286.715599,979.121832 L284.281192,992.028751 L266.224408,979.087784 Z M266.432523,791.776504 L287.750701,791.293655 L285.283433,808.880494 L275.844287,799.245184 L266.432523,791.776504 Z M277.633326,736.524573 C279.073602,732.394686 281.378524,729.365204 281.378524,729.365204 L278.666318,742.500407 L279.918975,749.746994 L286.439024,748.097261 L286.439024,728.37165 L276.509709,730.024478 L277.633326,736.524573 L277.633326,736.524573 Z M277.424324,471.45586 L280.105184,478.339551 L284.579673,473.690584 L277.424324,471.45586 Z" id="Path-1130" opacity="0.0474580224"></path>
                </g>
            </g>
        </g>
    </g>
</svg>