<?xml version="1.0" encoding="UTF-8" standalone="no"?>
<svg width="1440px" height="62px" viewBox="0 0 1440 62" version="1.1" xmlns="http://www.w3.org/2000/svg" xmlns:xlink="http://www.w3.org/1999/xlink" xmlns:sketch="http://www.bohemiancoding.com/sketch/ns">
    <!-- Generator: Sketch 3.2.2 (9983) - http://www.bohemiancoding.com/sketch -->
    <title>bg_main_nav</title>
    <desc>Created with Sketch.</desc>
    <defs></defs>
    <g id="Blank-Project" stroke="none" stroke-width="0" fill="none" fill-rule="evenodd" sketch:type="MSPage">
        <g id="Portada-8" sketch:type="MSArtboardGroup" transform="translate(-30.000000, -169.000000)" fill="#8C4C35">
            <g id="main-menu-2" sketch:type="MSLayerGroup" transform="translate(30.000000, 169.000000)">
                <path d="M0,5.4917405 C27.49125,5.4917405 55.0448775,5.42721571 82.56,5.4917405 C117.49875,5.57367418 170.950472,1.14453125 220.54875,1.14453125 C270.150472,1.14453125 330.558278,5.4917405 380.16,5.4917405 C489.25875,1.14453124 476.159237,1.27201059 557.2125,2.14453124 C567.17734,2.0685155 600.83625,5.83894961 696.5625,3.49174043 C781.2675,3.9140625 853.52853,5.11300285 911.0775,1.14453125 C1195.00125,-0.851373196 1144.005,8.4151342 1258.56,5.4917405 C1313.0625,9.90960452 1379.4775,5.4917405 1440,5.4917405 L1440,61.8300018 L0,61.8300018 L0,5.4917405 Z" id="bg_main_nav" sketch:type="MSShapeGroup"></path>
            </g>
        </g>
    </g>
</svg>