<?xml version="1.0" encoding="UTF-8" standalone="no"?>
<svg width="92px" height="83px" viewBox="0 0 92 83" version="1.1" xmlns="http://www.w3.org/2000/svg" xmlns:xlink="http://www.w3.org/1999/xlink" xmlns:sketch="http://www.bohemiancoding.com/sketch/ns">
    <!-- Generator: Sketch 3.2.2 (9983) - http://www.bohemiancoding.com/sketch -->
    <title>logo</title>
    <desc>Created with Sketch.</desc>
    <defs></defs>
    <g id="Blank-Project" stroke="none" stroke-width="1" fill="none" fill-rule="evenodd" sketch:type="MSPage">
        <g id="Portada" sketch:type="MSArtboardGroup" transform="translate(-544.000000, -35.000000)">
            <g id="HEADER" sketch:type="MSLayerGroup" transform="translate(399.000000, 35.000000)">
                <g id="LOGO" sketch:type="MSShapeGroup">
                    <g id="logo" transform="translate(145.000000, 0.000000)">
                        <path d="M0.676953037,81.2468957 C0.676953037,81.2468957 6.13752539,81.8751883 8.01059879,79.9863363 C9.88367219,78.0974844 9.64570043,77.222955 8.71920368,76.0123344 C7.79270694,74.8017137 6.48419416,74.3577962 6.48419416,74.3577962 C6.48419416,74.3577962 5.5779431,73.4355748 6.4435365,73.4355748 C7.30912989,73.4355748 12.3379018,75.3664165 14.7018536,77.8529757 C17.0658053,80.3395349 17.3221975,81.8748424 22.0964028,81.0620021 C26.8706082,80.2491618 27.4225547,78.5218757 27.422556,77.6782772 C27.4225573,76.8346787 27.0168092,75.7470899 25.6215047,74.7554038 C24.2262003,73.7637177 23.7739889,73.8495981 23.7739876,73.6425865 C23.7739863,73.4355748 26.8131883,73.4060876 29.4670553,75.3987297 C32.1209224,77.3913717 34.8884636,80.7858716 37.2540755,81.0163835 C39.6196873,81.2468955 43.3477443,81.4278148 45.0011017,79.1774702 C46.6544591,76.9271256 44.7888535,75.4320796 43.9546234,74.7287929 C43.1203934,74.0255062 42.3102273,73.765964 42.3102286,73.3854635 C42.3102299,73.0049629 46.8590737,74.2097085 48.0087727,75.2991982 C49.1584717,76.3886879 53.0581219,80.4617029 54.63232,80.7390432 C56.2065181,81.0163835 60.4730817,81.7506025 62.4643125,79.5405182 C64.4555433,77.330434 64.3244431,76.4026844 63.1765683,75.3802403 C62.0286934,74.3577962 60.819753,73.842859 60.6020258,73.4796382 C60.3842986,73.1164174 62.4641465,73.1931396 63.8333969,73.7754679 C65.2026472,74.3577962 68.9763417,77.2955302 70.0302877,78.4180242 C71.0842338,79.5405183 72.2799008,81.0238139 74.6549718,81.0238138 C77.0300428,81.0238138 79.8787367,80.816432 81.2073267,79.059795 C82.5359168,77.303158 82.7629385,77.1054528 81.5782242,75.6354626 C80.3935098,74.1654723 79.4836106,74.4860121 79.0997665,73.9828252 C78.7159225,73.4796382 79.1900405,72.9028394 80.7035037,73.3391537 C82.2169669,73.7754679 85.507416,75.4794264 86.9191468,77.0726212 C88.3308777,78.6658159 89.4878811,79.8169945 90.3239353,80.2780189 C91.1599895,80.7390433 91.5898016,81.6310253 91.0750233,81.631025 C90.5602449,81.6310248 86.6592671,79.2367399 85.472398,78.1546805 C84.2855289,77.0726211 84.2282711,77.8982489 83.9330493,78.4790218 C83.6378275,79.0597947 81.5173232,81.6882215 76.7967177,81.9494912 C72.0761121,82.210761 69.5306108,79.8460248 68.8717934,79.4529098 C68.212976,79.0597947 66.1814181,76.7845676 65.9394636,77.2314223 C65.697509,77.678277 64.2562365,81.2033511 59.6610915,81.816437 C55.0659464,82.4295229 51.6872134,80.8608657 50.4986809,79.6699437 C49.3101484,78.4790218 47.8615741,77.1882231 47.6861666,77.43325 C47.5107592,77.678277 47.8929412,78.8533017 45.8001492,80.3348693 C43.7073572,81.8164369 38.1850541,82.4310785 36.2268473,81.7274462 C34.2686404,81.0238138 31.0837366,78.6898353 30.4486474,78.1840561 C29.8135582,77.678277 29.6364906,77.2613162 29.1640313,78.6238263 C28.6915721,79.9863365 24.8974659,81.6657571 23.1737478,81.9405057 C21.4500297,82.2152544 17.8553942,82.4756605 15.7461745,80.7677276 C13.6369548,79.0597947 12.1035803,78.0608512 11.6659711,77.7470507 C11.228362,77.4332501 11.7119392,78.8512283 10.0916071,80.0490619 C8.47127495,81.2468955 6.112467,82.0417646 3.39471002,82.0417652 C0.676953037,82.0417658 0.405293483,82.1226346 0.131974474,81.7746199 C-0.141344536,81.4266053 0.676953037,81.2468957 0.676953037,81.2468957 Z" id="agua" fill="#326171"></path>
                        <g id="nano-1" transform="translate(3.183124, 34.769666)" fill="#000004">
                            <path d="M6.6515928,26.2913458 C6.6515928,26.2913458 9.34229983,27.2080377 10.7706284,27.6096196 C12.198957,28.0112015 12.5756625,28.1686202 12.5756625,28.1686202 C12.5756625,28.1686202 12.8468241,29.5325125 12.8468241,30.4167186 C12.8468241,31.3009247 17.5524913,30.5746556 18.9921046,29.2294254 C20.4317179,27.8841952 20.6937514,26.5450129 20.6937521,26.2719925 C20.6937527,25.9989721 19.2672491,25.8583147 18.7227684,27.0134675 C18.1782877,28.1686203 17.302074,28.9583057 16.9383121,28.9583058 C16.5745502,28.958306 15.0889695,28.7720299 15.0889695,28.7720299 C15.0889695,28.7720299 15.4286685,26.9599002 14.7364925,26.9599002 C14.0443165,26.9599001 15.2532596,26.2852979 15.871422,25.1092366 C16.4895843,23.9331753 16.4175622,21.4619951 16.4175622,21.4619951 C16.4175622,21.4619951 18.4881156,21.5831263 19.4073106,20.9277046 C20.3265056,20.2722828 20.8875809,19.1254245 20.4298922,17.9837498 C19.9722034,16.8420752 19.1527439,16.1196081 19.1527439,16.1196081 L19.2891545,15.3276761 C19.2891545,15.3276761 23.1508016,13.3114721 24.4334268,11.8972958 C25.7160521,10.4831194 26.4930276,6.90914435 25.2879015,5.11809565 C24.0827753,3.32704695 21.5027567,1.68806075 18.0204696,0.646436268 C14.5381825,-0.395188216 6.4645675,0.754089205 4.91625759,1.36890353 C3.36794769,1.98371786 2.27185035,4.95618418 3.37906623,7.9481767 C4.48628211,10.9401692 7.02199236,15.0888697 7.02199236,15.0888697 C7.02199236,15.0888697 6.93520061,15.6948709 6.35371323,15.9072397 C5.77222585,16.1196084 4.5929877,16.9293385 5.06179541,17.7575576 C5.53060312,18.5857768 6.34076916,18.318459 6.34076916,18.318459 L6.3001115,19.3562821 L8.24520704,20.0614696 C8.24520704,20.0614696 7.34293895,22.2115913 4.58585189,24.0237213 C1.82876483,25.8358514 0.574019807,26.5180567 0.337707483,27.1886844 C0.10139516,27.859312 0.372556884,28.6702517 0.810000111,29.2620842 C1.24744334,29.8539167 1.92086699,30.7068456 2.12216378,31.127954 C2.32346058,31.5490624 3.37143264,31.8626909 3.70748053,31.4953219 C4.04352842,31.127953 3.89201645,30.4001303 3.36429671,29.6792179 C2.83657698,28.9583055 2.70730215,28.5817796 2.70730215,28.5817796 L6.6515928,26.2913458 Z M9.2955022,16.1377518 C9.2955022,16.1377518 9.69958953,17.1964835 9.37300068,17.8826632 C9.04641182,18.5688428 7.20453695,17.7848597 7.20453695,17.7848597 L8.14397776,16.0781366 L9.2955022,16.1377518 Z M14.9869105,17.8786888 L16.7401683,16.5640438 C16.7401683,16.5640438 18.0373964,17.3825867 18.0373965,18.0380083 C18.0373965,18.69343 17.267888,19.1969626 16.4595474,19.1969626 C15.6512068,19.1969626 14.9869105,17.8786888 14.9869105,17.8786888 Z M16.0881522,12.5611846 C16.0881522,12.5611846 15.7011577,13.7237678 13.5234008,13.7237677 C11.3456438,13.7237676 11.5930747,11.7654511 11.5930747,11.7654511 C11.5930747,11.7654511 12.0101061,11.4445658 12.4291289,11.8269671 C12.8481518,12.2093684 13.5363448,12.9473874 14.5293874,12.9473875 C15.52243,12.9473876 16.0881522,12.5611846 16.0881522,12.5611846 Z M18.4162594,6.63111248 C18.4162594,6.63111248 19.5566653,6.05673284 20.11409,6.54488642 C20.6715148,7.03304 20.6177471,7.9035948 20.2763888,8.24176002 C19.9350304,8.57992525 19.1323321,8.80317977 18.443973,8.16313706 C17.755614,7.52309435 18.4162594,6.63111248 18.4162594,6.63111248 Z M10.2872172,5.41496213 C10.2872172,5.41496213 11.835693,4.69819717 12.1697497,5.36692437 C12.5038063,6.03565156 12.2087478,6.68312456 11.8597558,6.910008 C11.5107638,7.13689144 10.7926997,7.14784426 10.5399584,6.57184286 C10.2872172,5.99584147 10.2872172,5.41496213 10.2872172,5.41496213 Z" id="Path-1104"></path>
                        </g>
                        <g id="nano-2" transform="translate(71.750853, 49.633035) scale(-1, 1) translate(-71.750853, -49.633035) translate(58.751024, 33.707997)" fill="#000004">
                            <path d="M6.6515928,26.2913458 C6.6515928,26.2913458 9.34229983,27.2080377 10.7706284,27.6096196 C12.198957,28.0112015 12.5756625,28.1686202 12.5756625,28.1686202 C12.5756625,28.1686202 12.8468241,29.5325125 12.8468241,30.4167186 C12.8468241,31.3009247 17.5524913,30.5746556 18.9921046,29.2294254 C20.4317179,27.8841952 20.6937514,26.5450129 20.6937521,26.2719925 C20.6937527,25.9989721 19.2672491,25.8583147 18.7227684,27.0134675 C18.1782877,28.1686203 17.302074,28.9583057 16.9383121,28.9583058 C16.5745502,28.958306 15.0889695,28.7720299 15.0889695,28.7720299 C15.0889695,28.7720299 15.4286685,26.9599002 14.7364925,26.9599002 C14.0443165,26.9599001 15.2532596,26.2852979 15.871422,25.1092366 C16.4895843,23.9331753 16.4175622,21.4619951 16.4175622,21.4619951 C16.4175622,21.4619951 18.4881156,21.5831263 19.4073106,20.9277046 C20.3265056,20.2722828 20.8875809,19.1254245 20.4298922,17.9837498 C19.9722034,16.8420752 19.1527439,16.1196081 19.1527439,16.1196081 L19.2891545,15.3276761 C19.2891545,15.3276761 23.1508016,13.3114721 24.4334268,11.8972958 C25.7160521,10.4831194 26.4930276,6.90914435 25.2879015,5.11809565 C24.0827753,3.32704695 21.5027567,1.68806075 18.0204696,0.646436268 C14.5381825,-0.395188216 6.4645675,0.754089205 4.91625759,1.36890353 C3.36794769,1.98371786 2.27185035,4.95618418 3.37906623,7.9481767 C4.48628211,10.9401692 7.02199236,15.0888697 7.02199236,15.0888697 C7.02199236,15.0888697 6.93520061,15.6948709 6.35371323,15.9072397 C5.77222585,16.1196084 4.5929877,16.9293385 5.06179541,17.7575576 C5.53060312,18.5857768 6.34076916,18.318459 6.34076916,18.318459 L6.3001115,19.3562821 L8.24520704,20.0614696 C8.24520704,20.0614696 7.34293895,22.2115913 4.58585189,24.0237213 C1.82876483,25.8358514 0.574019807,26.5180567 0.337707483,27.1886844 C0.10139516,27.859312 0.372556884,28.6702517 0.810000111,29.2620842 C1.24744334,29.8539167 1.92086699,30.7068456 2.12216378,31.127954 C2.32346058,31.5490624 3.37143264,31.8626909 3.70748053,31.4953219 C4.04352842,31.127953 3.89201645,30.4001303 3.36429671,29.6792179 C2.83657698,28.9583055 2.70730215,28.5817796 2.70730215,28.5817796 L6.6515928,26.2913458 Z M9.2955022,16.1377518 C9.2955022,16.1377518 9.69958953,17.1964835 9.37300068,17.8826632 C9.04641182,18.5688428 7.20453695,17.7848597 7.20453695,17.7848597 L8.14397776,16.0781366 L9.2955022,16.1377518 Z M14.9869105,17.8786888 L16.7401683,16.5640438 C16.7401683,16.5640438 18.0373964,17.3825867 18.0373965,18.0380083 C18.0373965,18.69343 17.267888,19.1969626 16.4595474,19.1969626 C15.6512068,19.1969626 14.9869105,17.8786888 14.9869105,17.8786888 Z M16.0881522,12.5611846 C16.0881522,12.5611846 15.7011577,13.7237678 13.5234008,13.7237677 C11.3456438,13.7237676 11.5930747,11.7654511 11.5930747,11.7654511 C11.5930747,11.7654511 12.0101061,11.4445658 12.4291289,11.8269671 C12.8481518,12.2093684 13.5363448,12.9473874 14.5293874,12.9473875 C15.52243,12.9473876 16.0881522,12.5611846 16.0881522,12.5611846 Z M18.4162594,6.63111248 C18.4162594,6.63111248 19.5566653,6.05673284 20.11409,6.54488642 C20.6715148,7.03304 20.6177471,7.9035948 20.2763888,8.24176002 C19.9350304,8.57992525 19.1323321,8.80317977 18.443973,8.16313706 C17.755614,7.52309435 18.4162594,6.63111248 18.4162594,6.63111248 Z M10.2872172,5.41496213 C10.2872172,5.41496213 11.835693,4.69819717 12.1697497,5.36692437 C12.5038063,6.03565156 12.2087478,6.68312456 11.8597558,6.910008 C11.5107638,7.13689144 10.7926997,7.14784426 10.5399584,6.57184286 C10.2872172,5.99584147 10.2872172,5.41496213 10.2872172,5.41496213 Z" id="Path-1104"></path>
                        </g>
                        <g id="gegant" transform="translate(11.084982, 0.000000)" fill="#8C4C35">
                            <path d="M30.5108877,37.8859115 C30.4394892,38.0745143 30.403153,38.3042246 30.5070171,38.5160933 L30.5734888,38.21953 L30.5108877,37.8859115 L30.5108877,37.8859115 Z M27.0939312,63.8330327 L29.1683015,64.2308131 C29.1683015,64.2308131 28.8785534,65.50295 29.3750747,65.8853512 C29.8715961,66.2677525 31.1630161,65.8661707 31.3975028,65.5433846 C31.6319894,65.2205985 31.2942821,64.4096587 31.2942821,64.4096587 L31.7093221,63.6564335 L32.6690088,63.8083227 C32.6690088,63.8083227 32.6411293,67.1305314 32.9051551,67.6821019 C33.169181,68.2336724 34.2173185,68.5103216 35.023834,68.5103214 C35.8303494,68.5103212 36.9043754,67.4170302 36.1994211,66.9423549 C35.4944668,66.4676796 34.6288738,65.6087021 34.6288738,65.6087021 C34.6288738,65.6087021 34.8910746,64.8917644 34.8910743,64.3500435 C34.8910739,63.8083227 35.1516155,63.4271309 35.6755181,63.6177268 C36.1994208,63.8083227 37.0689971,63.7119015 37.0689971,63.7119015 C37.0689971,63.7119015 38.0693408,65.2147232 38.0693414,65.9199108 C38.0693421,66.6250983 39.396109,68.0257966 40.1637916,68.268059 C40.9314743,68.5103214 42.8213083,68.2547536 42.8213089,67.5051571 C42.8213096,66.7555605 42.2602329,65.9888571 41.8616222,65.3125268 C41.4630116,64.6361966 40.9907186,64.1345647 41.269348,63.6617902 C41.5479774,63.1890156 42.7881183,63.0115524 43.2273876,63.6807979 C43.6666569,64.3500435 43.861979,65.7467676 44.2423355,65.7467675 C44.6226921,65.7467673 45.5934974,65.8487181 45.8001046,64.2076582 C46.0067119,62.5665982 45.0325876,62.1957743 44.6374616,61.70572 C44.2423355,61.2156657 43.9527528,58.5236502 43.7146157,57.1573384 C43.4764787,55.7910267 40.5404973,45.3768539 40.5404973,45.3768539 C40.5404973,45.3768539 39.2855862,40.3731507 38.9608228,36.3877438 C38.6360594,32.4023368 37.8670488,31.1424686 38.7344675,29.3687004 C39.6018862,27.5949321 40.943423,24.6086416 40.943423,24.6086416 L41.1501962,28.4651411 L41.5710444,30.1003259 C41.5710444,30.1003259 41.3363914,31.9966079 41.9585368,32.3600017 C42.5806823,32.7233955 45.5462011,32.2912281 46.8104059,31.5723897 C48.0746108,30.8535514 48.9126558,30.6318519 48.6652249,30.0002761 C48.417794,29.3687002 46.9949413,29.3087394 46.1109283,29.6545078 C45.2269153,30.0002762 44.2708789,30.1580404 44.2708789,30.1580404 L43.5435217,29.9736652 L43.6102334,25.5156568 C43.6102334,25.5156568 43.8759181,23.6171283 44.3908604,22.1336599 C44.9058028,20.6501915 45.123528,17.5412151 45.123528,17.0242041 C45.123528,16.5071932 44.7285679,15.8498708 44.7285679,15.8498708 C44.7285679,15.8498708 42.7283774,16.1163249 41.4460844,15.8261975 C40.1637913,15.5360702 38.3414985,14.7114795 37.705248,14.7114794 C37.0689974,14.7114794 36.7566796,13.4778765 36.3358317,13.0550405 C35.9149838,12.6322045 35.3132501,12.3266981 35.3132501,12.3266981 C35.3132501,12.3266981 35.697921,12.0325964 36.3834592,11.7001336 C37.0689974,11.3676708 37.662267,11.3619684 37.9669505,11.0331344 C38.271634,10.7043003 38.3332017,9.62828893 38.5338344,9.09589915 C38.7344672,8.56350938 39.0077869,8.39261248 39.5857891,8.39261243 C40.1637913,8.39261239 40.2205467,7.35098778 40.0009951,6.92625099 C39.7814434,6.50151419 39.0195693,6.4479469 39.510282,5.68867372 C40.0009947,4.92940054 40.5771721,5.16958946 40.5771721,3.44385855 C40.5771721,1.71812764 37.4679398,0.0834613828 35.49148,0.0834612985 C33.5150201,0.0834612141 30.8360952,1.3552526 30.5845156,2.00877349 C30.332936,2.66229438 30.6713072,3.54995635 30.158191,4.10152667 C29.6450748,4.65309699 29.2814792,5.14868085 29.5435136,5.85214036 C29.805548,6.55559988 31.0290948,8.41697691 31.0290946,10.0585552 C31.0290945,11.7001336 31.3301272,13.1329723 30.4368204,13.803773 C29.5435137,14.4745738 28.5010181,15.4237516 27.5209196,15.4237516 C26.5408211,15.4237516 23.7394254,14.9608265 22.5786079,15.681393 C21.4177904,16.4019595 20.6074582,16.4517259 19.9892959,17.1705638 C19.3711337,17.8894016 19.6982203,25.7482426 19.6982203,25.7482426 C19.6982203,25.7482426 19.5730943,29.4820557 19.2222768,29.820048 C18.8714593,30.1580404 17.3692833,30.0351812 17.3692833,30.0351812 L16.2250606,29.990945 C16.2250606,29.990945 16.2932659,28.8764004 15.5605983,28.6707704 C14.8279308,28.4651404 14.115509,28.3998229 13.8682441,29.1953843 C13.6209791,29.9909457 13.7207149,31.4707853 14.1304445,31.4707846 C14.5401741,31.470784 16.7806598,32.0800694 17.8528605,32.4028555 C18.9250612,32.7256417 20.608786,33.526904 21.5936969,32.7602012 C22.5786078,31.9934984 23.0460881,30.1796401 23.046088,27.5258127 C23.0460879,24.8719853 22.5072494,24.1033811 22.9171451,23.5556123 C23.3270409,23.0078435 23.8326893,23.9050093 24.1353813,24.5777108 C24.4380733,25.2504123 25.8869794,28.0849855 25.8869796,29.0379656 C25.8869798,29.9909457 26.1805449,30.9036625 25.8521302,33.1386282 C25.5237154,35.3735939 25.6417062,36.5995951 25.3796716,37.0435111 C25.117637,37.4874271 24.301663,40.1922311 24.3016628,43.9201691 C24.3016627,47.6481071 22.9901634,52.2794316 23.8021545,55.4348908 C24.6141455,58.5903499 24.9525174,58.285015 24.6270901,60.1085507 C24.3016627,61.9320864 23.5016202,63.3263898 24.0643549,63.767024 C24.6270896,64.2076582 25.3089775,64.8143537 26.2014541,64.814351 C27.0939307,64.8143483 27.0939312,63.8330327 27.0939312,63.8330327 Z M36.0742951,4.99022534 C36.0742951,4.99022534 35.4099987,5.67225798 34.6884498,6.03737952 C33.9669008,6.40250106 33.5110372,6.49287431 33.9650754,6.67362072 C34.4191135,6.85436714 34.9192857,7.09282803 35.4967904,6.88322435 C36.0742951,6.67362068 36.4621193,6.30469759 36.4621193,5.83382381 C36.4621193,5.36295002 36.0742951,4.99022534 36.0742951,4.99022534 Z M38.5213882,18.8518856 L40.32078,19.7108631 C40.32078,19.7108631 41.2452854,20.2238995 40.9832509,20.7255313 C40.7212163,21.227163 40.0751745,21.3175363 40.0751745,21.3175363 C40.0751745,21.3175363 39.9867234,20.0761575 39.3997596,20.0761574 C38.8127957,20.0761573 38.3255676,19.7858573 38.3255677,19.4514937 C38.3255677,19.1171301 38.5213882,18.8518856 38.5213882,18.8518856 Z M23.4425416,18.8133517 C23.4425416,18.8133517 24.1972805,17.9661245 25.9616569,18.2427736 C27.7260333,18.5194228 28.1281296,19.1705246 28.1281293,19.6242914 C28.1281289,20.0780582 27.5005079,20.0165422 27.2348224,19.6033829 C26.969137,19.1902235 26.0408149,18.9612666 25.6015462,19.2823247 C25.1622775,19.6033829 25.0701755,20.1013859 24.4554981,19.6918553 C23.8408207,19.2823247 23.4425416,18.8133517 23.4425416,18.8133517 Z M34.0429057,17.6404008 C34.0429057,17.6404008 33.6001521,21.1532055 33.8215289,22.7019916 C34.0429057,24.2507777 33.2752228,25.9378017 33.6590643,28.8433953 C34.0429057,31.748989 34.4790214,36.7044826 34.4790213,38.7065164 C34.4790213,40.7085501 34.0804104,42.8856299 34.0804103,45.412623 C34.0804103,47.9396162 34.9182901,51.7040139 34.91829,52.7800266 C34.9182899,53.8560394 35.4385421,57.8336687 35.4385421,57.8336687 C35.4385421,57.8336687 35.8003122,59.8301709 35.6194272,59.8301736 C35.4385421,59.8301763 34.6537663,60.7017666 34.0392548,60.4442967 C33.4247434,60.1868267 33.3804348,54.5294307 33.3804348,54.5294307 C33.3804348,54.5294307 32.8636677,48.8898316 32.8636677,43.1405058 C32.8636677,37.3911801 32.6082712,33.8757836 32.3294759,32.3558546 C32.0506805,30.8359255 31.5783879,30.5762105 31.7868206,28.82577 C31.9952533,27.0753294 33.0085417,25.6409352 33.0085417,24.1714634 C33.0085417,22.7019916 31.8050751,22.1768594 32.4068084,20.8143493 C33.0085417,19.4518392 32.5442147,18.6118696 33.1016395,17.923789 C33.6590643,17.2357085 34.0429057,17.6404008 34.0429057,17.6404008 Z M30.7220878,57.5751633 C30.7220878,57.5751633 30.6205267,58.2342139 31.0763903,58.2342138 C31.5322538,58.2342138 31.6633541,57.6384073 31.6633541,57.6384073 L30.7220878,57.5751633 Z M31.1980313,59.7655472 L32.2149706,59.9518232 L32.0377364,60.3957405 L31.2718789,60.2132661 L31.1980313,59.7655472 Z M28.5627513,55.5629339 L30.0058492,55.6225491 L29.9190576,55.9569127 L28.5627513,55.5629339 Z M29.8194878,51.4277117 L31.0612888,51.4296124 L30.9137596,52.1501789 L29.8194878,51.4277117 Z M29.8321,40.9705121 L31.1240178,40.9435556 L30.9744972,41.9253923 L30.4024688,41.387473 L29.8321,40.9705121 Z M30.5108877,37.8859115 C30.5981709,37.6553486 30.737853,37.4862189 30.737853,37.4862189 L30.5734888,38.21953 L30.6494019,38.6240918 L31.0445279,38.5319907 L31.0445279,37.4307508 L30.4427946,37.5230248 L30.5108877,37.8859115 L30.5108877,37.8859115 Z M30.4982218,23.0876761 L30.6606865,23.4719782 L30.9318481,23.212436 L30.4982218,23.0876761 Z M0.21125387,13.0355144 C0.21125387,13.0355144 0.831407653,12.666764 1.28362034,12.8511392 L0.21125387,13.0355144 Z" id="Path-1110"></path>
                        </g>
                        <g id="puntitos" transform="translate(11.339880, 8.493354)" fill="#336171">
                            <path d="M52.7366329,10.0328084 C52.7366329,10.0328084 52.9304621,9.52737506 53.2958832,9.52737506 C53.6613042,9.52737506 53.8586184,10.3538665 53.8586184,10.3538665 L53.227346,10.7189881 L52.7366329,10.0328084 Z M58.9456381,0.97889908 C58.9456381,0.97889908 59.7426941,-0.385338914 60.5512007,0.135300614 C61.3597073,0.655940143 61.4523072,1.4323204 61.0017539,1.83977732 C60.5512007,2.24723423 59.9755215,2.38564534 59.4605798,1.94172797 C58.9456381,1.49781061 58.9456381,0.97889908 58.9456381,0.97889908 Z M65.7054301,11.9007517 C65.7054301,11.9007517 66.4546926,11.4414554 66.9659834,11.4414554 C67.4772742,11.4414554 67.7265305,11.8105513 67.4938692,12.0814981 C67.2612078,12.352445 66.3660755,12.7540269 66.3660755,12.7540269 L65.7054301,11.9007517 Z M14.6380844,0.941401975 C14.6380844,0.941401975 15.4666708,0.022809299 16.3470336,0.482105637 C17.2273963,0.941401975 17.3176729,1.43508506 17.053813,1.8943814 C16.7899532,2.35367773 15.64739,3.10120067 15.0237513,2.49779103 C14.4001126,1.8943814 14.6380844,0.941401975 14.6380844,0.941401975 Z M0.0358451186,4.66139128 C0.0358451186,4.66139128 0.42317158,4.01962055 0.818297593,4.34050591 C1.21342361,4.66139128 1.34634931,5.28225347 1.08232344,5.28225348 C0.818297572,5.2822535 0.142882626,5.1901523 0.142882626,5.1901523 L0.0358451186,4.66139128 Z" id="Path-1123"></path>
                        </g>
                    </g>
                </g>
            </g>
        </g>
    </g>
</svg>