<?xml version="1.0" encoding="UTF-8" standalone="no"?>
<svg width="91px" height="82px" viewBox="0 0 91 82" version="1.1" xmlns="http://www.w3.org/2000/svg" xmlns:xlink="http://www.w3.org/1999/xlink" xmlns:sketch="http://www.bohemiancoding.com/sketch/ns">
    <!-- Generator: Sketch 3.2.2 (9983) - http://www.bohemiancoding.com/sketch -->
    <title>logo_footer</title>
    <desc>Created with Sketch.</desc>
    <defs></defs>
    <g id="Blank-Project" stroke="none" stroke-width="1" fill="none" fill-rule="evenodd" sketch:type="MSPage">
        <g id="Portada" sketch:type="MSArtboardGroup" transform="translate(-545.000000, -1972.000000)" fill="#FEFEFE">
            <g id="footer" sketch:type="MSLayerGroup" transform="translate(29.000000, 1938.000000)">
                <g id="logo-footer" transform="translate(443.500000, 34.500000)" sketch:type="MSShapeGroup">
                    <g id="logo_footer" transform="translate(73.000000, 0.000000)">
                        <path d="M0.670830682,79.9503095 C0.670830682,79.9503095 6.08201769,80.5685754 7.93815104,78.7098669 C9.79428438,76.8511583 9.55846484,75.9905853 8.64034731,74.7992844 C7.72222979,73.6079836 6.42555118,73.1711503 6.42555118,73.1711503 C6.42555118,73.1711503 5.52749625,72.2636463 6.38526123,72.2636463 C7.24302622,72.2636463 12.226318,74.1636745 14.5688902,76.6105517 C16.9114624,79.0574289 17.1655357,80.5682351 21.8965632,79.7683666 C26.6275907,78.9684981 27.1745454,77.2687769 27.1745467,76.4386411 C27.174548,75.6085053 26.7724695,74.5382728 25.3897842,73.5624126 C24.0070988,72.5865524 23.5589772,72.6710624 23.5589759,72.4673543 C23.5589746,72.2636463 26.5706902,72.2346297 29.2005557,74.195472 C31.8304211,76.1563143 34.5729328,79.4966426 36.9171501,79.723476 C39.2613674,79.9503093 42.9557079,80.1283414 44.5941123,77.9139091 C46.2325168,75.6994768 44.3837836,74.2282897 43.5570983,73.5362265 C42.7304131,72.8441632 41.9275741,72.588763 41.9275754,72.2143346 C41.9275767,71.8399063 46.4352808,73.0254259 47.574582,74.0975289 C48.7138831,75.1696319 52.5782649,79.1776473 54.138226,79.4505616 C55.6981871,79.7234759 59.9261639,80.4459778 61.899386,78.2711634 C63.8726082,76.096349 63.7426937,75.183405 62.6052002,74.1772777 C61.4677067,73.1711504 60.2696999,72.6644308 60.0539419,72.3070065 C59.8381838,71.9495822 61.8992216,72.02508 63.2560884,72.5981152 C64.6129553,73.1711504 68.3525205,76.0620022 69.3969347,77.1665828 C70.4413489,78.2711635 71.6262023,79.7307878 73.9797932,79.7307877 C76.3333841,79.7307876 79.1563144,79.5267153 80.4728887,77.7981118 C81.789463,76.0695083 82.0144315,75.8749582 80.8404317,74.4284269 C79.6664319,72.9818957 78.7647618,73.2973201 78.3843892,72.8021633 C78.0040166,72.3070065 78.4738468,71.7394126 79.9736222,72.1687639 C81.4733976,72.5981152 84.734088,74.2748809 86.1330512,75.8426505 C87.5320143,77.4104201 88.6785538,78.5432275 89.5070467,78.9968946 C90.3355397,79.4505617 90.7614646,80.3283089 90.2513419,80.3283087 C89.7412192,80.3283084 85.8755218,77.9722329 84.6993867,76.9074417 C83.5232516,75.8426505 83.4665117,76.6551024 83.1739599,77.226607 C82.8814081,77.7981116 80.7800816,80.3845923 76.1021691,80.6416926 C71.4242566,80.8987928 68.9017768,78.5717945 68.2489178,78.1849531 C67.5960587,77.7981116 65.5828742,75.5591939 65.3431079,75.9989174 C65.1033416,76.4386409 63.6751039,79.9074598 59.1215173,80.5107617 C54.5679307,81.1140636 51.2197548,79.5704399 50.0419714,78.3985234 C48.864188,77.2266069 47.4287146,75.9564076 47.2548935,76.1975242 C47.0810725,76.4386409 47.459798,77.5949139 45.3859332,79.0528378 C43.3120684,80.5107616 37.839709,81.1155944 35.8992121,80.423191 C33.9587153,79.7307876 30.8026156,77.4340561 30.1732702,76.9363485 C29.5439247,76.4386409 29.3684585,76.0283342 28.9002722,77.3691006 C28.4320859,78.709867 24.6722935,80.3624864 22.9641647,80.6328505 C21.2560359,80.9032145 17.6939103,81.1594649 15.6037663,79.4787883 C13.5136224,77.7981116 11.9941157,76.8151098 11.5604642,76.5063171 C11.1268128,76.1975244 11.6060166,77.5928736 10.0003387,78.7715914 C8.39466084,79.9503093 6.05718592,80.7324934 3.3640083,80.732494 C0.670830682,80.7324946 0.401628014,80.8120728 0.130780898,80.469612 C-0.140066218,80.1271511 0.670830682,79.9503095 0.670830682,79.9503095 Z" id="agua"></path>
                        <g id="nano-1" transform="translate(3.154336, 34.214791)">
                            <path d="M6.59143588,25.8717729 C6.59143588,25.8717729 9.25780819,26.7738356 10.673219,27.1690089 C12.0886298,27.5641822 12.4619283,27.7190887 12.4619283,27.7190887 C12.4619283,27.7190887 12.7306376,29.0612151 12.7306376,29.9313105 C12.7306376,30.8014059 17.3937468,30.0867271 18.8203403,28.7629649 C20.2469337,27.4392027 20.5065974,26.1213918 20.506598,25.8527284 C20.5065987,25.584065 19.0929964,25.4456523 18.5534399,26.5823705 C18.0138835,27.7190887 17.1455943,28.4961718 16.7851222,28.496172 C16.4246502,28.4961721 14.9525051,28.3128687 14.9525051,28.3128687 C14.9525051,28.3128687 15.2891319,26.5296581 14.6032158,26.5296581 C13.9172998,26.529658 15.1153093,25.8658215 15.727881,24.7085285 C16.3404527,23.5512355 16.269082,21.1194919 16.269082,21.1194919 C16.269082,21.1194919 18.3209094,21.23869 19.2317911,20.5937279 C20.1426729,19.9487657 20.6986739,18.8202096 20.2451245,17.6967545 C19.7915751,16.5732994 18.9795267,15.8623618 18.9795267,15.8623618 L19.1147036,15.0830679 C19.1147036,15.0830679 22.941426,13.0990398 24.2124512,11.7074317 C25.4834765,10.3158236 26.253425,6.79888412 25.059198,5.03641804 C23.864971,3.27395196 21.308286,1.66112168 17.8574927,0.636120054 C14.4066994,-0.388881567 6.40610203,0.742055002 4.87179502,1.34705776 C3.33748801,1.95206051 2.25130377,4.87709045 3.348506,7.82133498 C4.44570823,10.7655795 6.95848555,14.8480725 6.95848555,14.8480725 C6.95848555,14.8480725 6.87247874,15.4444028 6.29625033,15.6533825 C5.72002191,15.8623621 4.55144878,16.6591701 5.0160166,17.474172 C5.48058441,18.2891739 6.28342332,18.0261222 6.28342332,18.0261222 L6.24313337,19.0473831 L8.17063749,19.7413168 C8.17063749,19.7413168 7.2765295,21.8571255 4.5443775,23.6403365 C1.8122255,25.4235475 0.568828379,26.0948658 0.334653261,26.7547912 C0.100478144,27.4147165 0.369187484,28.2127148 0.802674481,28.7951025 C1.23616148,29.3774902 1.90349469,30.2168075 2.10297096,30.6311956 C2.30244723,31.0455837 3.34094145,31.3542071 3.67395013,30.9927009 C4.0069588,30.6311946 3.8568171,29.914987 3.33387006,29.2055793 C2.81092301,28.4961716 2.68281735,28.1256546 2.68281735,28.1256546 L6.59143588,25.8717729 Z M9.2114338,15.880216 C9.2114338,15.880216 9.61186657,16.9220518 9.28823137,17.597281 C8.96459618,18.2725102 7.13937921,17.5010383 7.13937921,17.5010383 L8.07032373,15.8215521 L9.2114338,15.880216 Z M14.8513691,17.5933701 L16.5887704,16.2997049 C16.5887704,16.2997049 17.8742664,17.105185 17.8742665,17.7501471 C17.8742666,18.3951091 17.1117175,18.8906061 16.3106875,18.8906061 C15.5096575,18.8906061 14.8513691,17.5933701 14.8513691,17.5933701 Z M15.9426511,12.3607258 C15.9426511,12.3607258 15.5591566,13.5047557 13.4010953,13.5047556 C11.243034,13.5047556 11.4882271,11.5776911 11.4882271,11.5776911 C11.4882271,11.5776911 11.9014869,11.2619266 12.3167201,11.6382253 C12.7319532,12.0145241 13.4139222,12.7407653 14.3979838,12.7407654 C15.3820453,12.7407655 15.9426511,12.3607258 15.9426511,12.3607258 Z M18.249703,6.52528925 C18.249703,6.52528925 19.379795,5.9600759 19.9321785,6.44043924 C20.4845619,6.92080257 20.4312805,7.77746454 20.0930094,8.11023312 C19.7547383,8.44300171 18.9592995,8.6626934 18.277166,8.03286487 C17.5950324,7.40303635 18.249703,6.52528925 18.249703,6.52528925 Z M10.1941797,5.32854695 C10.1941797,5.32854695 11.7286511,4.62322055 12.0596866,5.2812758 C12.3907221,5.93933105 12.098332,6.57647129 11.7524963,6.79973399 C11.4066606,7.02299669 10.6950907,7.03377472 10.4446352,6.46696549 C10.1941797,5.90015627 10.1941797,5.32854695 10.1941797,5.32854695 Z" id="Path-1104"></path>
                        </g>
                        <g id="nano-2" transform="translate(70.940866, 48.886482) scale(-1, 1) translate(-70.940866, -48.886482) translate(57.897532, 33.170064)">
                            <path d="M6.59143588,25.8717729 C6.59143588,25.8717729 9.25780819,26.7738356 10.673219,27.1690089 C12.0886298,27.5641822 12.4619283,27.7190887 12.4619283,27.7190887 C12.4619283,27.7190887 12.7306376,29.0612151 12.7306376,29.9313105 C12.7306376,30.8014059 17.3937468,30.0867271 18.8203403,28.7629649 C20.2469337,27.4392027 20.5065974,26.1213918 20.506598,25.8527284 C20.5065987,25.584065 19.0929964,25.4456523 18.5534399,26.5823705 C18.0138835,27.7190887 17.1455943,28.4961718 16.7851222,28.496172 C16.4246502,28.4961721 14.9525051,28.3128687 14.9525051,28.3128687 C14.9525051,28.3128687 15.2891319,26.5296581 14.6032158,26.5296581 C13.9172998,26.529658 15.1153093,25.8658215 15.727881,24.7085285 C16.3404527,23.5512355 16.269082,21.1194919 16.269082,21.1194919 C16.269082,21.1194919 18.3209094,21.23869 19.2317911,20.5937279 C20.1426729,19.9487657 20.6986739,18.8202096 20.2451245,17.6967545 C19.7915751,16.5732994 18.9795267,15.8623618 18.9795267,15.8623618 L19.1147036,15.0830679 C19.1147036,15.0830679 22.941426,13.0990398 24.2124512,11.7074317 C25.4834765,10.3158236 26.253425,6.79888412 25.059198,5.03641804 C23.864971,3.27395196 21.308286,1.66112168 17.8574927,0.636120054 C14.4066994,-0.388881567 6.40610203,0.742055002 4.87179502,1.34705776 C3.33748801,1.95206051 2.25130377,4.87709045 3.348506,7.82133498 C4.44570823,10.7655795 6.95848555,14.8480725 6.95848555,14.8480725 C6.95848555,14.8480725 6.87247874,15.4444028 6.29625033,15.6533825 C5.72002191,15.8623621 4.55144878,16.6591701 5.0160166,17.474172 C5.48058441,18.2891739 6.28342332,18.0261222 6.28342332,18.0261222 L6.24313337,19.0473831 L8.17063749,19.7413168 C8.17063749,19.7413168 7.2765295,21.8571255 4.5443775,23.6403365 C1.8122255,25.4235475 0.568828379,26.0948658 0.334653261,26.7547912 C0.100478144,27.4147165 0.369187484,28.2127148 0.802674481,28.7951025 C1.23616148,29.3774902 1.90349469,30.2168075 2.10297096,30.6311956 C2.30244723,31.0455837 3.34094145,31.3542071 3.67395013,30.9927009 C4.0069588,30.6311946 3.8568171,29.914987 3.33387006,29.2055793 C2.81092301,28.4961716 2.68281735,28.1256546 2.68281735,28.1256546 L6.59143588,25.8717729 Z M9.2114338,15.880216 C9.2114338,15.880216 9.61186657,16.9220518 9.28823137,17.597281 C8.96459618,18.2725102 7.13937921,17.5010383 7.13937921,17.5010383 L8.07032373,15.8215521 L9.2114338,15.880216 Z M14.8513691,17.5933701 L16.5887704,16.2997049 C16.5887704,16.2997049 17.8742664,17.105185 17.8742665,17.7501471 C17.8742666,18.3951091 17.1117175,18.8906061 16.3106875,18.8906061 C15.5096575,18.8906061 14.8513691,17.5933701 14.8513691,17.5933701 Z M15.9426511,12.3607258 C15.9426511,12.3607258 15.5591566,13.5047557 13.4010953,13.5047556 C11.243034,13.5047556 11.4882271,11.5776911 11.4882271,11.5776911 C11.4882271,11.5776911 11.9014869,11.2619266 12.3167201,11.6382253 C12.7319532,12.0145241 13.4139222,12.7407653 14.3979838,12.7407654 C15.3820453,12.7407655 15.9426511,12.3607258 15.9426511,12.3607258 Z M18.249703,6.52528925 C18.249703,6.52528925 19.379795,5.9600759 19.9321785,6.44043924 C20.4845619,6.92080257 20.4312805,7.77746454 20.0930094,8.11023312 C19.7547383,8.44300171 18.9592995,8.6626934 18.277166,8.03286487 C17.5950324,7.40303635 18.249703,6.52528925 18.249703,6.52528925 Z M10.1941797,5.32854695 C10.1941797,5.32854695 11.7286511,4.62322055 12.0596866,5.2812758 C12.3907221,5.93933105 12.098332,6.57647129 11.7524963,6.79973399 C11.4066606,7.02299669 10.6950907,7.03377472 10.4446352,6.46696549 C10.1941797,5.90015627 10.1941797,5.32854695 10.1941797,5.32854695 Z" id="Path-1104"></path>
                        </g>
                        <g id="gegant" transform="translate(10.984729, 0.000000)">
                            <path d="M30.2349476,37.2813057 C30.1641948,37.4668986 30.1281872,37.692943 30.231112,37.9014306 L30.2969825,37.6096 L30.2349476,37.2813057 L30.2349476,37.2813057 Z M26.848894,62.8143473 L28.9045037,63.2057796 C28.9045037,63.2057796 28.6173761,64.457615 29.1094069,64.8339137 C29.6014377,65.2102124 30.8811782,64.8150392 31.1135442,64.4974043 C31.3459101,64.1797694 31.011257,63.3817711 31.011257,63.3817711 L31.4225434,62.6405663 L32.3735507,62.7900315 C32.3735507,62.7900315 32.3459233,66.0592225 32.6075613,66.6019907 C32.8691993,67.1447589 33.9078575,67.4169932 34.7070788,67.416993 C35.5063002,67.4169928 36.5706127,66.3411492 35.872034,65.874049 C35.1734552,65.4069489 34.3156907,64.5616795 34.3156907,64.5616795 C34.3156907,64.5616795 34.5755201,63.856183 34.5755198,63.3231073 C34.5755195,62.7900315 34.8337047,62.4149231 35.3528692,62.6024773 C35.8720337,62.7900315 36.7337456,62.6951492 36.7337456,62.6951492 C36.7337456,62.6951492 37.7250422,64.1739879 37.7250428,64.8679217 C37.7250434,65.5618555 39.0398111,66.9402006 39.8005508,67.1785968 C40.5612905,67.416993 42.4340329,67.1655037 42.4340335,66.4278697 C42.4340342,65.6902357 41.8780319,64.9357677 41.4830262,64.2702307 C41.0880206,63.6046937 40.6199991,63.1110673 40.8961086,62.6458375 C41.1722181,62.1806078 42.4011431,62.0059766 42.8364397,62.6645419 C43.2717362,63.3231073 43.4652918,64.6975417 43.8422084,64.6975415 C44.219125,64.6975414 45.1811503,64.7978652 45.3858891,63.1829942 C45.5906278,61.5681233 44.6253135,61.2032172 44.2337609,60.7209835 C43.8422084,60.2387498 43.5552446,57.589695 43.3192613,56.2451877 C43.0832779,54.9006804 40.1738495,44.6527031 40.1738495,44.6527031 C40.1738495,44.6527031 38.9302879,39.728852 38.6084616,35.8070465 C38.2866354,31.8852411 37.5245797,30.6454786 38.3841535,28.9000172 C39.2437273,27.1545558 40.5731312,24.2159223 40.5731312,24.2159223 L40.7780343,28.0108775 L41.1950764,29.6199671 C41.1950764,29.6199671 40.9625455,31.4859871 41.5790643,31.8435816 C42.1955831,32.2011761 45.1342818,31.7759055 46.3870532,31.0685388 C47.6398247,30.3611721 48.4702903,30.1430106 48.2250972,29.5215138 C47.9799041,28.9000171 46.5699196,28.8410131 45.6939016,29.1812636 C44.8178836,29.521514 43.8704936,29.6767605 43.8704936,29.6767605 L43.1497146,29.4953277 L43.215823,25.1084628 C43.215823,25.1084628 43.4791049,23.2402321 43.9893901,21.7804378 C44.4996753,20.3206434 44.7154314,17.2612819 44.7154314,16.7525218 C44.7154314,16.2437616 44.3240433,15.5969292 44.3240433,15.5969292 C44.3240433,15.5969292 42.3419425,15.859131 41.0712465,15.5736337 C39.8005505,15.2881363 37.9947385,14.476705 37.3642422,14.4767049 C36.7337459,14.4767048 36.4242526,13.2627886 36.0072109,12.8467004 C35.5901691,12.4306123 34.9938775,12.1299813 34.9938775,12.1299813 C34.9938775,12.1299813 35.3750695,11.8405731 36.0544077,11.5134159 C36.7337459,11.1862587 37.3216499,11.1806474 37.6235779,10.8570611 C37.9255059,10.5334747 37.9865167,9.47463497 38.1853349,8.95074139 C38.3841532,8.42684781 38.655001,8.25867818 39.2277757,8.25867814 C39.8005505,8.2586781 39.8567926,7.23367635 39.6392266,6.81571776 C39.4216605,6.39775917 38.6666768,6.34504673 39.1529515,5.59789049 C39.6392262,4.85073424 40.2101927,5.08709008 40.2101927,3.38889941 C40.2101927,1.69070874 37.1290803,0.0821294565 35.1704955,0.0821293735 C33.2119107,0.0821292905 30.557214,1.33362467 30.3079096,1.97671629 C30.0586053,2.6198079 30.3939162,3.49330404 29.8854407,4.03607207 C29.3769652,4.5788401 29.0166579,5.06651514 29.2763224,5.75874843 C29.535987,6.45098172 30.748468,8.2826538 30.7484679,9.89803485 C30.7484677,11.5134159 31.0467779,12.9233885 30.1615502,13.5834842 C29.2763225,14.2435799 28.2432552,15.1776102 27.2720207,15.1776102 C26.3007863,15.1776102 23.5247263,14.7220728 22.3744073,15.4311401 C21.2240882,16.1402073 20.4210846,16.1891795 19.808513,16.8965457 C19.1959414,17.6039119 19.5200698,25.3373368 19.5200698,25.3373368 C19.5200698,25.3373368 19.3960754,29.0115635 19.0484307,29.344162 C18.700786,29.6767605 17.2121957,29.5558619 17.2121957,29.5558619 L16.0783214,29.5123317 C16.0783214,29.5123317 16.1459098,28.4155736 15.4198685,28.2132252 C14.6938272,28.0108768 13.9878485,27.9466017 13.7428198,28.729467 C13.4977912,29.5123323 13.5966249,30.9685558 14.0026489,30.9685552 C14.4086729,30.9685545 16.6288957,31.5681166 17.6913994,31.8857515 C18.7539032,32.2033865 20.4224004,32.9918618 21.3984038,32.2373945 C22.3744071,31.4829272 22.8376596,29.6980155 22.8376595,27.0865394 C22.8376593,24.4750634 22.3036941,23.718725 22.7098828,23.1796979 C23.1160714,22.6406707 23.6171468,23.523519 23.9171012,24.1854851 C24.2170557,24.8474513 25.6528579,27.6367886 25.6528581,28.5745605 C25.6528583,29.5123323 25.9437684,30.4104835 25.6183238,32.6097823 C25.2928792,34.8090811 25.4098029,36.015517 25.1501382,36.4523487 C24.8904734,36.8891805 24.081879,39.5508196 24.0818789,43.219265 C24.0818788,46.8877103 22.7822407,51.4451254 23.5868881,54.5502279 C24.3915355,57.6553303 24.7268471,57.3548681 24.404363,59.1493027 C24.0818788,60.9437374 23.2890718,62.3157897 23.8467172,62.749392 C24.4043625,63.1829942 25.0800834,63.7800077 25.9644885,63.7800051 C26.8488936,63.7800024 26.848894,62.8143473 26.848894,62.8143473 Z M35.7480396,4.91058836 C35.7480396,4.91058836 35.0897511,5.58173672 34.3747279,5.94103143 C33.6597046,6.30032614 33.2079638,6.38925716 33.6578956,6.56711912 C34.1078275,6.74498107 34.6034761,6.97963647 35.1757579,6.77337777 C35.7480396,6.56711908 36.1323564,6.20408348 36.1323564,5.74072418 C36.1323564,5.27736488 35.7480396,4.91058836 35.7480396,4.91058836 Z M38.1730013,18.551036 L39.9561194,19.3963054 C39.9561194,19.3963054 40.8722636,19.9011545 40.6125989,20.3947809 C40.3529342,20.8884074 39.7127352,20.9773383 39.7127352,20.9773383 C39.7127352,20.9773383 39.625084,19.7557703 39.0434286,19.7557702 C38.4617733,19.7557701 37.9789517,19.4701028 37.9789517,19.1410752 C37.9789517,18.8120476 38.1730013,18.551036 38.1730013,18.551036 Z M23.2305276,18.5131171 C23.2305276,18.5131171 23.9784406,17.6794104 25.72686,17.9516446 C27.4752794,18.2238788 27.8737391,18.8645899 27.8737388,19.3111153 C27.8737385,19.7576407 27.2517936,19.6971064 26.988511,19.2905404 C26.7252285,18.8839745 25.8053021,18.6586714 25.3700062,18.9746059 C24.9347102,19.2905404 24.8434412,19.780596 24.2343229,19.377601 C23.6252047,18.9746059 23.2305276,18.5131171 23.2305276,18.5131171 Z M33.7350221,17.3588848 C33.7350221,17.3588848 33.2962728,20.81563 33.5156474,22.3396997 C33.7350221,23.8637694 32.9742821,25.5238708 33.3546521,28.3830953 C33.7350221,31.2423198 34.1671935,36.1187307 34.1671935,38.0888148 C34.1671935,40.0588988 33.7721876,42.2012355 33.7721875,44.6879014 C33.7721875,47.1745673 34.6024895,50.8788905 34.6024894,51.9377316 C34.6024893,52.9965727 35.1180363,56.9107247 35.1180363,56.9107247 C35.1180363,56.9107247 35.4765346,58.8753655 35.2972855,58.8753681 C35.1180364,58.8753708 34.3403581,59.7330518 33.7314042,59.4796907 C33.1224504,59.2263296 33.0785426,53.6592177 33.0785426,53.6592177 C33.0785426,53.6592177 32.5664491,48.1096186 32.5664491,42.452044 C32.5664491,36.7944695 32.3133624,33.3351738 32.0370885,31.8395006 C31.7608146,30.3438275 31.2927933,30.0882572 31.499341,28.3657512 C31.7058887,26.6432452 32.7100129,25.2317419 32.7100129,23.7857208 C32.7100129,22.3396997 31.5174304,21.8229479 32.1137216,20.4821815 C32.7100129,19.1414152 32.2498852,18.3148503 32.8022687,17.6377506 C33.3546521,16.9606508 33.7350221,17.3588848 33.7350221,17.3588848 Z M30.4442376,56.6563447 C30.4442376,56.6563447 30.343595,57.3048777 30.7953358,57.3048777 C31.2470765,57.3048776 31.3769911,56.7185794 31.3769911,56.7185794 L30.4442376,56.6563447 Z M30.9158767,58.8117731 L31.9236188,58.9950764 L31.7479875,59.4319094 L30.9890564,59.252347 L30.9158767,58.8117731 Z M28.3044302,54.6762276 L29.7344767,54.7348914 L29.64847,55.063919 L28.3044302,54.6762276 Z M29.5498007,50.6069977 L30.7803709,50.6088681 L30.634176,51.3179354 L29.5498007,50.6069977 Z M29.5622989,40.3166803 L30.8425326,40.290154 L30.6943642,41.256322 L30.1275093,40.7269871 L29.5622989,40.3166803 Z M30.2349476,37.2813057 C30.3214414,37.0544221 30.4598603,36.8879915 30.4598603,36.8879915 L30.2969825,37.6096 L30.3722091,38.0077056 L30.7637616,37.9170743 L30.7637616,36.8334086 L30.1674703,36.9242101 L30.2349476,37.2813057 L30.2349476,37.2813057 Z M30.2223962,22.7192292 L30.3833916,23.0973984 L30.6521009,22.8419982 L30.2223962,22.7192292 Z M0.209343293,12.8274859 C0.209343293,12.8274859 0.823888413,12.4646203 1.27201129,12.6460531 L0.209343293,12.8274859 Z" id="Path-1110"></path>
                        </g>
                        <g id="puntitos" transform="translate(11.237322, 8.357812)">
                            <path d="M52.2596835,9.87269887 C52.2596835,9.87269887 52.4517597,9.37533155 52.8138759,9.37533155 C53.175992,9.37533155 53.3715217,10.1886334 53.3715217,10.1886334 L52.7459585,10.5479282 L52.2596835,9.87269887 Z M58.4125345,0.963277228 C58.4125345,0.963277228 59.202382,-0.379189447 60.0035764,0.133141407 C60.8047709,0.645472261 60.8965333,1.40946258 60.4500548,1.81041706 C60.0035764,2.21137154 59.4331036,2.34757379 58.9228191,1.91074072 C58.4125345,1.47390766 58.4125345,0.963277228 58.4125345,0.963277228 Z M65.111191,11.7108325 C65.111191,11.7108325 65.8536772,11.2588659 66.3603439,11.2588659 C66.8670106,11.2588659 67.1140126,11.6220715 66.8834554,11.8886944 C66.6528983,12.1553173 65.7658616,12.5504905 65.7658616,12.5504905 L65.111191,11.7108325 Z M14.5056977,0.926378524 C14.5056977,0.926378524 15.3267905,0.0224452946 16.1991912,0.474411909 C17.071592,0.926378524 17.161052,1.41218312 16.8995786,1.86414973 C16.6381051,2.31611635 15.5058752,3.05170987 14.8878767,2.4579298 C14.2698782,1.86414973 14.5056977,0.926378524 14.5056977,0.926378524 Z M0.0355209358,4.58700203 C0.0355209358,4.58700203 0.419344422,3.95547306 0.810896919,4.27123754 C1.20244942,4.58700203 1.33417295,5.19795613 1.07253492,5.19795615 C0.810896899,5.19795616 0.141590397,5.10732477 0.141590397,5.10732477 L0.0355209358,4.58700203 Z" id="Path-1123"></path>
                        </g>
                    </g>
                </g>
            </g>
        </g>
    </g>
</svg>